<?xml version="1.0" encoding="UTF-8" standalone="no"?>
<!-- Created with Inkscape (http://www.inkscape.org/) -->

<svg
   width="210mm"
   height="297mm"
   viewBox="0 0 210 297"
   version="1.1"
   id="svg1"
   xml:space="preserve"
   inkscape:version="1.3.2 (091e20ef0f, 2023-11-25, custom)"
   sodipodi:docname="babis.svg"
   xmlns:inkscape="http://www.inkscape.org/namespaces/inkscape"
   xmlns:sodipodi="http://sodipodi.sourceforge.net/DTD/sodipodi-0.dtd"
   xmlns="http://www.w3.org/2000/svg"
   xmlns:svg="http://www.w3.org/2000/svg"><sodipodi:namedview
     id="namedview1"
     pagecolor="#ffffff"
     bordercolor="#000000"
     borderopacity="0.25"
     inkscape:showpageshadow="2"
     inkscape:pageopacity="0.0"
     inkscape:pagecheckerboard="0"
     inkscape:deskcolor="#d1d1d1"
     inkscape:document-units="mm"
     inkscape:zoom="0.733172"
     inkscape:cx="396.9055"
     inkscape:cy="561.25984"
     inkscape:window-width="1920"
     inkscape:window-height="1011"
     inkscape:window-x="0"
     inkscape:window-y="32"
     inkscape:window-maximized="1"
     inkscape:current-layer="layer1" /><defs
     id="defs1"><clipPath
       clipPathUnits="userSpaceOnUse"
       id="clipPath1"><rect
         style="fill:#dfdfdf;stroke:#402308;stroke-width:1.826;stroke-linecap:round;stroke-linejoin:round"
         id="rect2"
         width="105.23787"
         height="101.4538"
         x="61.775936"
         y="47.046207" /></clipPath></defs><g
     inkscape:label="Vrstva 1"
     inkscape:groupmode="layer"
     id="layer1"><path
       style="fill:#000000;fill-opacity:1;stroke:none"
       d="m 95.17186,90.412332 c -2.50303,1.01848 -0.72481,4.2837 0.008,6.08542 1.27997,3.14841 5.32358,13.746148 3.34697,16.804448 -2.16618,3.35162 -10.37394,3.8689 -13.93786,4.96531 -5.11156,1.57253 -1.39224,2.145 1.85198,1.07044 1.15191,-0.38155 2.28625,-0.81452 3.43958,-1.19125 1.73159,-0.56562 3.49266,-0.99412 5.29167,-1.27604 l -6.87917,6.61459 6.35,3.43958 v 0.52917 c -5.39282,2.24157 -5.02128,8.76734 -1.05833,12.7 0.007,-2.83488 -2.14388,-5.72892 -1.92746,-8.39861 0.19148,-2.36191 6.40557,-6.33178 8.27746,-7.74098 l 3.43958,16.66875 3.175,-6.35 h 0.26458 c 2.24282,3.08942 2.39483,4.16102 2.64584,7.9375 h 0.26458 c 2.19717,-5.94059 4.10635,-5.87357 5.55625,0.52917 h 0.26458 l -0.26458,-5.82083 c 4.26451,-1.67673 6.19378,-3.52601 9.525,-6.61459 l -1.05834,7.40834 c 2.43852,-2.67985 2.11649,-8.75126 2.11667,-12.17084 l 11.64167,5.29167 c -1.65732,3.71693 -3.33273,7.31861 -3.96875,11.37708 1.61311,-1.29319 5.53904,-9.83322 4.54885,-11.75047 -0.81565,-1.57929 -3.83707,-2.51876 -5.3426,-3.33078 v -0.26458 c 4.96285,-3.53614 1.45858,-6.40836 -2.64584,-9.26042 v -0.26458 c 4.48967,1.50701 9.24462,4.36383 14.02292,4.49792 -7.81478,-6.35924 -20.85812,-2.86519 -16.40417,-16.66875 5.27241,0.87391 12.41209,-12.658278 5.82084,-15.081248 7e-5,-4.62111 0.58621,-9.61763 -1.24668,-14.0229 -2.94837,-7.086269 -14.50862,-12.612999 -21.77207,-9.789599 l -0.26458,-0.79375 C 98.03029,69.57353 93.62655,78.227412 95.1722,90.412332 m 26.19374,-21.960419 c 9.54123,3.212419 17.40761,20.441949 5.82084,25.929169 l -3.43959,-12.17083 0.79375,-0.26459 -0.52916,-1.05833 h 0.52916 l -0.52916,-1.05833 h 1.05803 c -1.07647,-2.06294 -2.20983,-3.74471 -4.49792,-4.49792 v 1.05833 c -2.64606,-1.4199 -7.80459,-2.1315 -6.61458,2.38125 l -2.91041,-1.5875 0.26458,0.79375 -2.64583,-1.05833 0.26458,1.05833 -1.05833,0.26459 h -0.26459 c -1.77096,-1.30962 -8.95154,-2.06537 -8.73125,-1.05834 h -0.26458 l -2.38125,11.37709 c -4.9516,-11.00121 7.20872,-20.922449 16.93333,-21.833559 2.91195,-0.27283 5.39484,1.87408 8.20208,1.72522 m 0.52917,9.789589 -0.52917,-2.11667 c 2.33597,1.27291 1.31593,3.38271 1.85209,5.55625 v 0.26458 l -0.26459,2.91042 v 0.26458 c 3.11432,2.80266 3.31409,6.93616 2.91042,10.84792 3.34858,-0.21586 5.14462,-6.19557 8.99583,-3.70417 -3.40841,-0.31324 -7.87653,6.61817 -5.55625,9.260418 l 1.05834,-4.762498 1.05833,0.26458 c -0.79239,-1.91736 -0.13399,-3.51722 1.85208,-4.23333 -0.60906,3.82912 -0.28033,6.11231 -2.91041,9.260418 l 1.32291,-0.52917 c -1.27289,2.92701 -3.52975,1.65555 -5.19099,3.56496 -3.67204,4.22061 -6.63841,8.89352 -10.41942,13.10379 2.58768,-1.40083 3.41556,-3.6316 4.7625,-6.08542 l 5.02708,-3.43958 c -1.94214,7.27246 -2.36479,12.20199 -8.73125,16.90374 -1.70057,1.25591 -4.04813,3.60339 -6.34754,2.59418 -2.808,-1.23241 -4.44132,-4.64005 -6.07212,-7.0625 -1.22195,-1.81512 -2.68985,-3.48804 -3.45534,-5.55625 l 1.5875,1.05833 c -6.70682,-8.40984 -8.65649,-28.343668 -3.175,-37.835418 l 0.79375,0.52917 1.32292,-1.85208 -0.79375,1.32291 0.26458,0.26459 c 0.57033,-0.62245 2.95053,-2.73605 2.64584,-0.52917 l 3.17499,0.79375 v -0.26458 l -2.11666,-0.52917 c 0.65998,-1.79996 3.54097,0.62111 2.11666,0.79375 v 0.26458 l 1.85209,-0.79375 c 1.68751,0.31704 4.31505,1.05645 5.82083,0 h 1.05833 c -1.05633,-0.7393 -1.44434,-1.36291 -1.5875,-2.64583 l 2.64584,1.32292 -0.52917,-1.85209 5.55625,2.64584 m -21.16667,2.91041 c 2.59125,-0.55224 4.24692,-0.82266 6.87917,-0.26458 -1.92101,-1.51335 -5.06206,-1.32515 -6.87917,0.26458 m 1.05834,1.05834 c 4.18389,-0.24058 10.19888,-1.96417 14.02291,-0.79375 -1.73496,-1.73494 -11.85417,-0.46086 -14.02291,0.79375 m 11.90625,1.32291 1.5875,-1.05833 -1.5875,1.05833 m -8.99583,-0.52916 0.26458,1.5875 h 0.26458 l -0.52916,-1.5875 m 1.85208,0 v 2.91041 h 0.52917 l -0.52917,-2.91041 m 2.91042,0.26458 -0.79375,2.91042 0.79375,-2.91042 m 1.85208,0 -0.52917,1.32292 h 0.26459 l 0.26458,-1.32292 m -13.75833,5.29167 1.85208,-1.85209 1.5875,-0.52916 h 0.26458 c 3.7664,1.70132 5.46193,2.53493 3.70417,7.14375 l -0.52917,-0.26459 -2.11666,2.38125 2.11666,-1.5875 h 0.26459 c -0.74748,2.83041 -4.86132,11.505948 -2.91042,13.758338 l 1.5875,-6.35 3.43958,0.79375 -3.175,-1.85209 c 1.15365,-3.767938 4.19991,-8.667108 2.73099,-12.673378 -1.47011,-4.00951 -7.74913,-2.33188 -8.8164,1.03172 m 12.43541,-1.32292 c 3.19787,-1.43401 6.56456,0.0314 9.78958,0.52917 -1.44572,-2.3456 -9.09939,-4.42539 -9.78958,-0.52917 m -4.7625,3.43958 v -0.52916 l -1.5875,-0.79375 0.52917,-0.52917 -1.32292,-1.5875 c -5.96016,1.80795 -1.89617,4.37347 2.38125,3.43958 m 5.82084,-1.5875 2.64583,-0.79375 v 0.26459 l -2.38125,2.38125 2.91041,-2.11667 -1.58749,2.38125 6.34999,-0.79375 c -1.72451,-2.35222 -5.74162,-4.00387 -7.93749,-1.32292 m -8.99584,-0.79375 v 0.26459 h -0.79375 l 0.79375,-0.26459 m 15.08125,0.79375 v 0.26459 l -2.91042,-0.52917 2.91042,0.26458 m -16.13958,-0.52916 -0.26458,0.26458 0.26458,-0.26458 m 2.64583,0.52916 -0.79375,-0.52916 0.79375,0.52916 m -7.40833,0 v 1.5875 h -0.26458 l 0.26458,-1.5875 m 6.52639,0.44097 -0.0882,0.1764 0.0882,-0.1764 m 12.78819,0.0882 v 0.79375 h -0.26462 l 0.26458,-0.79375 m 1.5875,0.26458 v 0.52917 l -1.05833,0.26458 v -1.05833 l 1.05833,0.26458 m 2.64583,-0.26458 v 0.52917 h 1.32292 l -1.32292,-0.52917 m -15.87499,0.79375 -0.79375,-0.52917 0.79375,0.52917 m -1.32292,-0.26458 -0.26458,0.26458 0.26458,-0.26458 m 12.17083,0.52916 -0.26458,0.26459 0.26458,-0.26459 m 3.70417,0.26459 c 0.9534,0.95764 1.88076,1.02467 3.175,0.79375 v -0.26459 l -3.175,-0.52916 m -23.28333,0.52916 v 0.79375 h -0.26459 l 0.26459,-0.79375 m 1.05833,0 v 0.79375 h -0.26458 l 0.26458,-0.79375 m 3.175,0 c 0.92898,0.84804 1.65003,1.15406 2.91042,1.05834 l -2.91042,-1.05834 m 11.1125,0 c 0.5458,1.8242 1.5686,2.97245 3.43958,3.43959 v -0.26459 l -3.43958,-3.175 m 23.28333,6.61459 h -0.26458 l 0.26458,-5.29167 c 2.10884,1.2813 0.98965,3.60188 0,5.29167 m -31.48541,-4.7625 -2.64584,1.32291 2.64584,-1.32291 m 26.45833,2.64583 -1.85209,7.672918 h 0.26459 c 0.88457,-2.12057 1.75573,-5.371738 1.5875,-7.672918 m -17.72708,3.175 -0.79375,1.852078 c -0.66287,-1.905418 -2.36561,-0.59781 -3.175,0.52917 1.66598,-0.2881 3.48521,0.28567 4.49791,-1.32292 2.16545,2.4362 4.02965,5.42081 2.91042,8.73125 2.75891,-2.62642 -0.49132,-6.93942 -2.11667,-9.260408 l -1.32291,-0.52917 m -8.46667,9.789578 c 2.46785,-1.3858 9.04197,-1.31907 11.64166,-0.26458 -2.49539,-3.90329 -9.71414,-4.5 -11.64166,0.26458 m 7.67292,-2.64583 v 0.26458 l -2.11667,-0.26458 h 2.11667 m -2.64584,0 v 0.26458 h -1.85208 l 1.85208,-0.26458 m 2.64584,1.05833 -4.49792,0.26459 4.49792,-0.26459 m 4.23333,2.11667 0.26458,3.70417 h 0.52917 l -0.79375,-3.70417 m -12.17083,0.26458 -0.79375,2.64584 0.79375,-2.64584 m 2.38125,1.85209 5.82083,0.52916 c -1.51905,-1.65365 -3.94578,-1.5093 -5.82083,-0.52916 m -3.43959,2.11666 c 3.74978,4.75753 12.89519,5.44816 16.66875,0 -1.39465,0.29361 -13.54449,4.98277 -13.22916,2.38125 l -3.43959,-2.38125 m -1.5875,1.05834 c -0.61015,7.90273 -0.6885,13.68133 -10.05416,8.46666 2.89211,-2.85193 6.38888,-6.69097 10.05416,-8.46666 m 26.19375,0.52916 c 1.98675,1.46908 8.63844,5.77407 8.6384,8.42706 -4e-5,3.82818 -5.94817,2.91224 -7.62833,1.1138 -1.47233,-1.57596 -1.27126,-7.43971 -1.01007,-9.54086 m -25.4,0.79375 c 2.67068,4.39253 5.8716,10.24802 10.31875,12.96459 v 0.52916 l -7.40833,6.35 c -1.80183,-5.17633 -4.28296,-14.44955 -2.91042,-19.84375 m 4.49792,0 -0.26458,0.26459 0.26458,-0.26459 m -9.525,0.52917 -0.26458,0.26458 0.26458,-0.26458 m 29.63333,0.26458 c 0.337,4.36485 1.20798,17.60217 -6.08477,17.69398 -2.44983,0.0308 -4.55441,-4.01728 -7.14439,-4.72939 v -0.26459 c 6.35943,-2.01896 10.27498,-7.12925 13.22916,-12.7 m -18.25625,1.05834 -0.26458,0.26458 c 0.85368,1.37621 1.52569,2.52259 3.175,2.91042 l -2.91042,-3.175 m 10.58333,17.19791 c -1.94572,0.88703 -9.8768,2.97926 -9.50405,-1.58757 0.53517,-6.55672 8.01476,-0.3365 9.50405,1.58757 m 0,16.13959 v 1.32291 c -3.05803,-0.0464 -1.56062,2.52729 0.79375,2.64584 l -0.26458,-3.96875 h -0.52917 m 6.61459,0 0.79375,0.79375 -0.79375,-0.79375 m -26.45833,0.26458 v 3.70417 c 3.42384,-0.10299 3.28927,-3.52601 0,-3.70417 m 10.84791,3.70417 0.79375,-0.79375 2.38125,0.79375 c -0.7488,-3.69299 -2.5643,-3.88806 -3.175,0 m -9.26041,-3.175 0.26458,0.26458 v 0.52917 l -1.05833,0.26458 0.26458,-1.05833 h 0.52917 m 4.23333,2.38125 -1.5875,-0.52917 h 1.85208 c -2.17344,-4.04667 -3.24624,3.04855 -0.26458,0.52917 m 0.79375,-2.11667 v 0.79375 h 1.05833 l -1.05833,2.11667 h 2.38125 v -0.52917 h -1.32292 l 1.32292,-2.11667 -2.38125,-0.26458 m 8.20208,0 c -0.21818,1.14867 -0.27065,2.00282 0.52917,2.91042 l 1.05833,-2.11667 v 2.11667 h 0.79375 c -0.0553,-1.83818 -0.48226,-2.6791 -2.38125,-2.91042 m 6.61458,0 c -0.21817,1.14867 -0.27063,2.00282 0.52917,2.91042 l 1.05833,-2.91042 h -1.5875 m 4.49792,2.11667 h -1.85208 v -0.26459 l 1.85208,-0.26458 c -1.62517,-3.80146 -3.66487,2.92515 0,0.52917 m 0.52917,-2.11667 -0.26459,3.96875 c 1.17233,-1.1091 1.05597,-2.44594 1.05834,-3.96875 h -0.79375 m 3.96875,2.11667 -1.5875,0.26458 1.5875,-0.79375 c -1.59999,-4.17155 -3.40041,3.22704 0,0.52917 m -17.99167,-1.85209 0.26459,1.05834 -0.26459,-1.05834 m -7.14375,0.52917 v 0.26458 h -1.05833 l 1.05833,-0.26458 m 24.34167,0.26458 h -0.79375 l 0.26458,-0.52916 0.52917,0.52916 m -10.05417,-0.26458 -0.26458,1.5875 c -0.70559,-0.71125 -0.74438,-1.24891 0.26458,-1.5875 m 5.55625,0 v 0.26458 h -1.05833 l 1.05833,-0.26458 m -23.01875,0.79375 v 0.52917 l -1.05833,0.26458 -0.26458,-1.05833 z"
       id="path1"
       clip-path="url(#clipPath1)"
       transform="translate(-46.932299,-44.911716)"
       inkscape:export-filename="babis.png"
       inkscape:export-xdpi="96"
       inkscape:export-ydpi="96" /></g></svg>
