<?xml version="1.0" encoding="UTF-8" standalone="no"?>
<!-- Created with Inkscape (http://www.inkscape.org/) -->

<svg
   width="210mm"
   height="297mm"
   viewBox="0 0 210 297"
   version="1.1"
   id="svg1"
   inkscape:version="1.3.2 (091e20ef0f, 2023-11-25, custom)"
   sodipodi:docname="bronze_coins.svg"
   xmlns:inkscape="http://www.inkscape.org/namespaces/inkscape"
   xmlns:sodipodi="http://sodipodi.sourceforge.net/DTD/sodipodi-0.dtd"
   xmlns="http://www.w3.org/2000/svg"
   xmlns:svg="http://www.w3.org/2000/svg">
  <sodipodi:namedview
     id="namedview1"
     pagecolor="#ffffff"
     bordercolor="#000000"
     borderopacity="0.25"
     inkscape:showpageshadow="2"
     inkscape:pageopacity="0.0"
     inkscape:pagecheckerboard="0"
     inkscape:deskcolor="#d1d1d1"
     inkscape:document-units="mm"
     inkscape:zoom="0.733172"
     inkscape:cx="343.71198"
     inkscape:cy="561.25984"
     inkscape:window-width="1920"
     inkscape:window-height="1011"
     inkscape:window-x="0"
     inkscape:window-y="32"
     inkscape:window-maximized="1"
     inkscape:current-layer="layer1" />
  <defs
     id="defs1" />
  <g
     inkscape:label="Vrstva 1"
     inkscape:groupmode="layer"
     id="layer1">
    <path
       style="fill:#a57164;fill-opacity:1;stroke-width:1.06166"
       d="m 96.764812,77.056121 c -0.33004,-0.0371 -0.45839,-0.0549 -0.60473,-0.0837 -0.72558,-0.1429 -1.28999,-0.41612 -1.60819,-0.77851 -0.13507,-0.15384 -0.20987,-0.29517 -0.24422,-0.46151 -0.0273,-0.1322 -0.0197,-0.56812 0.0119,-0.67804 0.0117,-0.0407 0.0252,-0.0738 0.0301,-0.0736 0.005,2e-4 0.0341,0.0452 0.065,0.0999 0.27984,0.4965 1.08549,0.88636 2.11265,1.02233 0.27872,0.0369 1.04489,0.0368 1.33125,-1.7e-4 0.88051,-0.11366 1.58535,-0.40613 1.9625,-0.81434 0.055,-0.0595 0.12531,-0.15283 0.15625,-0.20733 0.0309,-0.0545 0.06,-0.0995 0.0646,-0.0999 0.005,-4.6e-4 0.0187,0.0325 0.0312,0.0731 0.0194,0.0626 0.0229,0.11944 0.0229,0.36983 0,0.27534 -0.002,0.30208 -0.0293,0.38535 -0.0487,0.14902 -0.112518,0.25633 -0.231988,0.39025 -0.4029,0.45162 -1.22197,0.77121 -2.18251,0.85158 -0.15472,0.0129 -0.78466,0.0163 -0.8875,0.005 z m -4.14375,-0.8867 c -0.0275,-0.003 -0.14,-0.0157 -0.25,-0.0278 -0.97062,-0.10677 -1.81198,-0.49306 -2.11161,-0.96948 -0.13706,-0.21794 -0.16125,-0.3255 -0.15402,-0.68489 0.004,-0.21472 0.01,-0.27412 0.0301,-0.3371 l 0.0248,-0.0765 0.0454,0.0843 c 0.28155,0.52239 1.10787,0.92766 2.15282,1.05585 0.28866,0.0354 0.82245,0.042 1.12954,0.0139 0.14,-0.0128 0.27007,-0.0268 0.28905,-0.031 l 0.0345,-0.008 0.006,0.29375 c 0.006,0.26507 0.01,0.30592 0.0394,0.41835 0.0182,0.0685 0.0412,0.14224 0.0511,0.1638 l 0.018,0.0392 -0.06,0.009 c -0.26768,0.04 -0.44925,0.053 -0.80154,0.0574 -0.21656,0.003 -0.41625,0.002 -0.44375,-9.2e-4 z m 4.25625,-0.76714 c -1.15422,-0.0626 -2.13016,-0.4802 -2.46469,-1.05459 -0.1,-0.17161 -0.11656,-0.2541 -0.11656,-0.57895 0,-0.23018 0.004,-0.28901 0.0238,-0.36279 0.0131,-0.0484 0.0272,-0.0878 0.0312,-0.0875 0.004,2.8e-4 0.0299,0.0419 0.0574,0.0926 0.0645,0.11868 0.24432,0.31456 0.3875,0.422 0.75668,0.56781 2.21053,0.79856 3.45,0.54757 0.43062,-0.0872 0.75743,-0.20305 1.0875,-0.38548 0.22615,-0.12499 0.36844,-0.23352 0.50317,-0.38376 0.0771,-0.086 0.173698,-0.22713 0.195808,-0.28611 0.01,-0.0259 0.0311,0.0259 0.0507,0.1223 0.0228,0.11277 0.0263,0.50634 0.005,0.61996 -0.045,0.24474 -0.224888,0.49741 -0.502568,0.70572 -0.11471,0.0861 -0.40332,0.24478 -0.56497,0.31072 -0.42484,0.1733 -0.94552,0.28557 -1.47904,0.31892 -0.2441,0.0153 -0.37591,0.0152 -0.66471,-5.1e-4 z m -4.3,-0.89537 c -0.0241,-0.003 -0.12813,-0.0154 -0.23125,-0.0272 -0.62751,-0.0719 -1.21358,-0.26179 -1.61728,-0.52411 -0.30623,-0.19898 -0.51533,-0.44345 -0.59133,-0.69136 -0.0265,-0.0866 -0.0289,-0.11785 -0.0289,-0.38308 0,-0.23703 0.004,-0.30335 0.0222,-0.36984 0.0122,-0.0446 0.0263,-0.0809 0.0312,-0.0809 0.005,9e-5 0.0284,0.0381 0.0521,0.0845 0.0532,0.10422 0.1875,0.26016 0.31788,0.36921 0.56894,0.47586 1.62457,0.75167 2.68332,0.70108 0.26868,-0.0128 0.53304,-0.0361 0.57759,-0.0507 0.0205,-0.007 0.0219,0.0216 0.0219,0.45804 v 0.46525 l -0.0406,0.008 c -0.13601,0.0269 -0.31588,0.0376 -0.70938,0.0419 -0.24406,0.003 -0.46344,0.002 -0.4875,-8.7e-4 z m 4.3,-0.85086 c -1.16569,-0.068 -2.13015,-0.48099 -2.46469,-1.05539 -0.1,-0.17161 -0.11656,-0.2541 -0.11656,-0.57895 0,-0.23018 0.004,-0.28901 0.0238,-0.36279 0.0131,-0.0484 0.0272,-0.0878 0.0312,-0.0875 0.004,2.8e-4 0.0299,0.0419 0.0574,0.0926 0.0645,0.11868 0.24432,0.31456 0.3875,0.422 0.75668,0.56781 2.21053,0.79856 3.45,0.54757 0.43062,-0.0872 0.75743,-0.20305 1.0875,-0.38548 0.22615,-0.12499 0.36844,-0.23352 0.50317,-0.38375 0.0771,-0.086 0.173698,-0.22714 0.195808,-0.28612 0.01,-0.0267 0.0316,0.0272 0.0519,0.12979 0.016,0.0804 0.0191,0.15598 0.0148,0.35927 -0.006,0.29955 -0.022,0.36801 -0.122858,0.53803 -0.282,0.47521 -1.00809,0.84726 -1.93768,0.99286 -0.36437,0.0571 -0.8021,0.0789 -1.16141,0.058 z m -4.2,-0.79866 c -1.35567,-0.0876 -2.41268,-0.6319 -2.55578,-1.31616 -0.0226,-0.10814 -0.0262,-0.50827 -0.006,-0.62129 0.0558,-0.30575 0.33194,-0.62779 0.73287,-0.85469 0.70044,-0.3964 1.83515,-0.57668 2.83788,-0.45087 l 0.12812,0.0161 v 1.58829 1.5883 l -0.13437,0.0159 c -0.33537,0.0396 -0.71944,0.0528 -1.00313,0.0345 z m 4.19375,-0.85916 c -1.34617,-0.0928 -2.34766,-0.59233 -2.55176,-1.2727 -0.0345,-0.11506 -0.0341,-0.60095 6.1e-4,-0.7291 0.0131,-0.0484 0.0272,-0.0879 0.0312,-0.0876 0.004,2.3e-4 0.0269,0.0387 0.0507,0.0855 0.0979,0.19272 0.34294,0.42099 0.62462,0.58197 1.07409,0.61384 2.86367,0.66883 4.09289,0.12577 0.39582,-0.17487 0.7445,-0.45787 0.87048,-0.70652 0.0241,-0.0475 0.0471,-0.0865 0.0512,-0.0868 0.004,-2.3e-4 0.0178,0.0329 0.0303,0.0735 0.0331,0.10735 0.0416,0.55428 0.0131,0.69228 -0.0384,0.18616 -0.158678,0.38984 -0.320728,0.54323 -0.5196,0.49182 -1.53263,0.79867 -2.59886,0.78719 -0.12719,-0.001 -0.25937,-0.004 -0.29375,-0.007 z m -0.0563,-1.66178 c -0.42125,-0.0412 -0.72349,-0.092 -0.99235,-0.16695 -0.75215,-0.20957 -1.27659,-0.56452 -1.45786,-0.98671 -0.0647,-0.15064 -0.0784,-0.25265 -0.0723,-0.53877 0.004,-0.21227 0.008,-0.24677 0.0385,-0.34147 0.19456,-0.61185 1.12841,-1.10204 2.32153,-1.21861 0.28333,-0.0277 0.80416,-0.0277 1.0875,0 1.05758,0.10333 1.92358,0.50179 2.23646,1.02905 0.100688,0.16968 0.116178,0.238 0.122708,0.54146 0.008,0.35858 -0.0165,0.4665 -0.153448,0.68431 -0.21387,0.34008 -0.74215,0.65944 -1.37425,0.83079 -0.43927,0.11907 -0.77752,0.16263 -1.30647,0.16823 -0.21657,0.002 -0.41907,0.002 -0.45,-0.001 z"
       id="path26" />
  </g>
</svg>
