<?xml version="1.0" encoding="UTF-8" standalone="no"?>
<!-- Created with Inkscape (http://www.inkscape.org/) -->

<svg
   width="210mm"
   height="297mm"
   viewBox="0 0 210 297"
   version="1.1"
   id="svg1"
   xml:space="preserve"
   inkscape:version="1.3.2 (091e20ef0f, 2023-11-25, custom)"
   sodipodi:docname="chest.svg"
   xmlns:inkscape="http://www.inkscape.org/namespaces/inkscape"
   xmlns:sodipodi="http://sodipodi.sourceforge.net/DTD/sodipodi-0.dtd"
   xmlns="http://www.w3.org/2000/svg"
   xmlns:svg="http://www.w3.org/2000/svg"><sodipodi:namedview
     id="namedview1"
     pagecolor="#ffffff"
     bordercolor="#000000"
     borderopacity="0.25"
     inkscape:showpageshadow="2"
     inkscape:pageopacity="0.0"
     inkscape:pagecheckerboard="0"
     inkscape:deskcolor="#d1d1d1"
     inkscape:document-units="mm"
     inkscape:zoom="0.733172"
     inkscape:cx="480.10562"
     inkscape:cy="561.25984"
     inkscape:window-width="1920"
     inkscape:window-height="1011"
     inkscape:window-x="0"
     inkscape:window-y="32"
     inkscape:window-maximized="1"
     inkscape:current-layer="layer1" /><defs
     id="defs1" /><g
     inkscape:label="Vrstva 1"
     inkscape:groupmode="layer"
     id="layer1"><path
       style="fill:#020202;stroke:none"
       d="M 10.976397,90.296543 C 36.70376,106.14605 64.567233,111.2539 94.320146,107.75905 V 78.919463 c 0,-3.10049 1.13786,-8.98143 -0.31101,-11.74669 -1.70878,-3.26131 -11.43184,-5.67455 -14.77024,-7.15594 -13.94808,-6.18933 -27.917367,-13.68012 -42.333331,-18.66821 l 3.175,-6.87916 c 12.982048,7.00322 27.258535,12.27433 40.745831,18.25625 4.6903,2.08025 12.05746,7.23405 17.19792,7.23405 5.140454,0 12.507604,-5.1538 17.197924,-7.23405 13.48729,-5.98192 27.76381,-11.25302 40.74583,-18.25625 l 3.175,6.87916 c -14.41595,4.9881 -28.38527,12.47888 -42.33333,18.66821 -3.3384,1.48139 -13.06146,3.89463 -14.77024,7.15594 -1.44886,2.76526 -0.31101,8.6462 -0.31101,11.74669 v 28.839587 c 29.73234,3.49244 57.63325,-1.62336 83.34375,-17.462507 -10.189,-13.20525 -15.45603,-27.33029 -17.10448,-43.92083 -0.60195,-6.05819 -0.88719,-12.17082 -0.88719,-18.25625 0,-1.63511 0.71044,-5.52743 -0.57559,-6.75176 -2.10506,-2.00402 -8.51316,-2.10392 -11.33066,-2.6674 -3.82414,-0.76482 -12.46193,-4.22654 -16.08623,-2.74041 -4.14265,1.69869 -7.76092,9.28085 -10.54105,12.68873 -5.46361,6.69728 -12.44504,10.88776 -20.99772,12.27283 -12.274224,1.98777 -26.786784,0.8213 -36.246759,-8.0782 -4.11849,-3.87449 -9.213431,-15.42036 -14.589831,-16.96843 -5.212287,-1.50081 -15.790053,2.79752 -21.130082,3.8851 -1.545626,0.31479 -5.443006,0.45186 -6.303572,1.94605 -1.140375,1.98002 -0.308392,6.284 -0.311218,8.53015 -0.0077,6.15386 -0.474248,12.40913 -1.209394,18.52084 -1.920294,15.96453 -7.536317,28.54706 -16.782067,41.53958 m 3.704167,11.112507 c 5.211399,15.06125 12.103876,29.1312 15.999763,44.71459 1.217452,4.86976 1.172379,17.32798 4.410946,20.87815 1.561356,1.71159 5.250714,2.19563 7.370542,2.95796 6.270798,2.25508 12.614855,4.86211 19.049999,6.59097 1.84128,-23.80223 13.772831,-40.96974 26.193751,-60.325 -26.850768,2.77906 -48.626458,-5.15818 -73.025002,-14.81667 m 93.662507,14.81667 c 12.59603,19.62813 23.70036,36.4138 26.19375,60.325 6.44844,-1.52381 12.81611,-4.34876 19.05,-6.59097 2.10044,-0.75549 5.82218,-1.29175 7.37663,-2.95935 3.17812,-3.40942 3.15002,-15.87224 4.3073,-20.61218 3.83417,-15.70373 10.8564,-29.83253 16.09732,-44.97917 -24.68394,9.21935 -45.93814,17.62017 -73.025,14.81667 m -14.022924,71.70209 v -44.18542 h 7.408344 v 44.18542 c 6.46311,-1.30664 12.81109,-4.31717 19.05,-6.44076 1.59425,-0.54267 5.46552,-1.18991 6.12895,-2.93512 1.26758,-3.33446 -0.92556,-10.01632 -1.73457,-13.37829 -3.15554,-13.11314 -8.88137,-25.20912 -16.60544,-36.24792 -1.77363,-2.53478 -7.20885,-12.07798 -10.543114,-12.07798 -3.35588,0 -8.77541,9.5424 -10.583,12.07798 -7.78516,10.92052 -13.53568,23.18875 -16.628938,36.24792 -0.807299,3.40825 -2.982546,9.99249 -1.673477,13.37829 0.675468,1.74705 4.529315,2.38984 6.131245,2.93512 6.23891,2.12359 12.58689,5.13412 19.05,6.44076 m -59.002082,-12.43542 0.264584,5.55625 45.508338,17.99167 c 0,-1.8734 0.79232,-6.11685 -0.5756,-7.56256 -2.40876,-2.54574 -9.09975,-3.50949 -12.388987,-4.67949 -10.64252,-3.78566 -21.768553,-8.94408 -32.808335,-11.30587 m 79.639586,23.54792 c 11.77399,-3.71857 23.19665,-9.22575 34.66042,-13.81126 5.77756,-2.31102 11.0138,-2.71608 11.1125,-9.73666 -11.01945,2.60394 -21.83373,7.51873 -32.54375,11.19613 -3.31533,1.13836 -10.25399,2.16079 -12.65357,4.7439 -1.3677,1.47231 -0.5756,5.71374 -0.5756,7.60789 m -26.458334,-5.02709 v 8.20209 c 8.44975,2.66868 10.60025,2.66868 19.050004,0 v -8.20209 c -8.221834,2.17812 -10.828174,2.17812 -19.050004,0 z"
       id="path1"
       inkscape:export-filename="chest.png"
       inkscape:export-xdpi="96"
       inkscape:export-ydpi="96" /></g></svg>
