<?xml version="1.0" encoding="UTF-8" standalone="no"?>
<!-- Created with Inkscape (http://www.inkscape.org/) -->

<svg
   width="210mm"
   height="297mm"
   viewBox="0 0 210 297"
   version="1.1"
   id="svg1"
   inkscape:version="1.3.2 (091e20ef0f, 2023-11-25, custom)"
   sodipodi:docname="golden_coins.svg"
   xmlns:inkscape="http://www.inkscape.org/namespaces/inkscape"
   xmlns:sodipodi="http://sodipodi.sourceforge.net/DTD/sodipodi-0.dtd"
   xmlns="http://www.w3.org/2000/svg"
   xmlns:svg="http://www.w3.org/2000/svg">
  <sodipodi:namedview
     id="namedview1"
     pagecolor="#ffffff"
     bordercolor="#000000"
     borderopacity="0.25"
     inkscape:showpageshadow="2"
     inkscape:pageopacity="0.0"
     inkscape:pagecheckerboard="0"
     inkscape:deskcolor="#d1d1d1"
     inkscape:document-units="mm"
     inkscape:zoom="0.733172"
     inkscape:cx="396.9055"
     inkscape:cy="561.25984"
     inkscape:window-width="1920"
     inkscape:window-height="1011"
     inkscape:window-x="0"
     inkscape:window-y="32"
     inkscape:window-maximized="1"
     inkscape:current-layer="layer1" />
  <defs
     id="defs1" />
  <g
     inkscape:label="Vrstva 1"
     inkscape:groupmode="layer"
     id="layer1">
    <path
       style="fill:#d4af37;fill-opacity:1;stroke-width:1.06166"
       d="m 118.31665,88.83879 c -0.33004,-0.0371 -0.45839,-0.0549 -0.60473,-0.0837 -0.72558,-0.1429 -1.28999,-0.41613 -1.60819,-0.77851 -0.13508,-0.15383 -0.20987,-0.29518 -0.24422,-0.46151 -0.0273,-0.13219 -0.0197,-0.56811 0.0119,-0.67805 0.0117,-0.0407 0.0252,-0.0738 0.0301,-0.0736 0.005,2e-4 0.0341,0.0452 0.065,0.0999 0.27983,0.49651 1.08549,0.88637 2.11265,1.02235 0.27872,0.0369 1.04489,0.0368 1.33125,-1.6e-4 0.88051,-0.11368 1.58535,-0.40614 1.9625,-0.81435 0.055,-0.0595 0.12531,-0.15283 0.15625,-0.20735 0.0309,-0.0545 0.06,-0.0995 0.0646,-0.0999 0.005,-4.5e-4 0.0187,0.0325 0.0312,0.0731 0.0194,0.0626 0.0229,0.11944 0.0229,0.36983 0,0.27533 -0.002,0.30207 -0.0293,0.38535 -0.0487,0.14902 -0.11252,0.25633 -0.23199,0.39025 -0.4029,0.45163 -1.22197,0.7712 -2.18251,0.85158 -0.15472,0.0129 -0.78467,0.0163 -0.8875,0.005 z m -4.14375,-0.88671 c -0.0275,-0.003 -0.14,-0.0157 -0.25,-0.0278 -0.97062,-0.10677 -1.81198,-0.49306 -2.11161,-0.96948 -0.13707,-0.21794 -0.16125,-0.32549 -0.15402,-0.68489 0.004,-0.21472 0.01,-0.27411 0.0301,-0.33708 l 0.0248,-0.0765 0.0454,0.0843 c 0.28155,0.52238 1.10787,0.92766 2.15282,1.05584 0.28865,0.0354 0.82245,0.042 1.12954,0.0139 0.14,-0.0128 0.27007,-0.0268 0.28905,-0.0311 l 0.0345,-0.008 0.006,0.29374 c 0.006,0.26506 0.01,0.30592 0.0394,0.41836 0.0182,0.0685 0.0412,0.14224 0.0511,0.16382 l 0.018,0.0392 -0.06,0.009 c -0.26769,0.04 -0.44925,0.053 -0.80154,0.0574 -0.21656,0.003 -0.41625,0.002 -0.44375,-9.1e-4 z m 4.25625,-0.76713 c -1.15422,-0.0626 -2.13016,-0.48021 -2.4647,-1.0546 -0.0999,-0.1716 -0.11655,-0.2541 -0.11655,-0.57893 0,-0.23019 0.004,-0.28902 0.0239,-0.36281 0.0131,-0.0484 0.0272,-0.0878 0.0312,-0.0876 0.004,2.9e-4 0.0299,0.0419 0.0574,0.0926 0.0645,0.11866 0.24432,0.31455 0.3875,0.42199 0.75668,0.56781 2.21053,0.79856 3.45,0.54757 0.43061,-0.0872 0.75743,-0.20305 1.0875,-0.38547 0.22615,-0.125 0.36844,-0.23352 0.50317,-0.38376 0.0771,-0.086 0.1737,-0.22714 0.1958,-0.28611 0.01,-0.0259 0.0311,0.0259 0.0507,0.12227 0.0228,0.11278 0.0263,0.50635 0.005,0.61998 -0.045,0.24473 -0.22488,0.49741 -0.50256,0.70572 -0.11471,0.0861 -0.40332,0.24477 -0.56497,0.31074 -0.42484,0.17328 -0.94552,0.28555 -1.47904,0.31889 -0.2441,0.0153 -0.37591,0.0152 -0.66471,-4.9e-4 z m -4.3,-0.89538 c -0.0241,-0.003 -0.12813,-0.0154 -0.23125,-0.0272 -0.62751,-0.0719 -1.21358,-0.2618 -1.61729,-0.52414 -0.30622,-0.19899 -0.51532,-0.44345 -0.59132,-0.69137 -0.0265,-0.0866 -0.0289,-0.11785 -0.0289,-0.3831 0,-0.23703 0.004,-0.30334 0.0222,-0.36982 0.0122,-0.0446 0.0263,-0.0809 0.0312,-0.0809 0.005,9e-5 0.0284,0.0381 0.0521,0.0845 0.0532,0.10421 0.18749,0.26014 0.31788,0.3692 0.56894,0.47584 1.62457,0.75168 2.68332,0.70109 0.26868,-0.0128 0.53304,-0.0361 0.57758,-0.0507 0.0205,-0.007 0.0219,0.0216 0.0219,0.45807 v 0.46524 l -0.0406,0.008 c -0.136,0.0269 -0.31587,0.0376 -0.70937,0.0419 -0.24406,0.003 -0.46344,0.002 -0.4875,-8.6e-4 z m 4.3,-0.85086 c -1.16569,-0.068 -2.13015,-0.48098 -2.4647,-1.05539 -0.0999,-0.1716 -0.11655,-0.2541 -0.11655,-0.57895 0,-0.23017 0.004,-0.28902 0.0239,-0.36278 0.0131,-0.0484 0.0272,-0.0878 0.0312,-0.0875 0.004,2.7e-4 0.0299,0.0419 0.0574,0.0926 0.0645,0.11867 0.24432,0.31455 0.3875,0.42199 0.75668,0.56783 2.21053,0.79858 3.45,0.54757 0.43061,-0.0872 0.75743,-0.20303 1.0875,-0.38547 0.22615,-0.125 0.36844,-0.23352 0.50317,-0.38376 0.0771,-0.086 0.1737,-0.22712 0.1958,-0.28611 0.01,-0.0267 0.0315,0.0272 0.0519,0.12981 0.016,0.0804 0.0191,0.15598 0.0148,0.35926 -0.006,0.29955 -0.022,0.368 -0.12286,0.53802 -0.28199,0.47522 -1.00808,0.84727 -1.93768,0.99287 -0.36436,0.0571 -0.80209,0.0789 -1.1614,0.058 z m -4.2,-0.79865 c -1.35567,-0.0876 -2.41268,-0.63192 -2.55579,-1.31617 -0.0226,-0.10814 -0.0262,-0.50828 -0.006,-0.62129 0.0558,-0.30574 0.33195,-0.62779 0.73287,-0.85469 0.70045,-0.39639 1.83516,-0.57669 2.83788,-0.45087 l 0.12813,0.0161 v 1.5883 1.5883 l -0.13438,0.0159 c -0.33536,0.0396 -0.71943,0.0528 -1.00312,0.0345 z m 4.19375,-0.85918 c -1.34617,-0.0928 -2.34767,-0.59233 -2.55176,-1.27269 -0.0345,-0.11505 -0.0341,-0.60096 6.1e-4,-0.72911 0.0131,-0.0484 0.0272,-0.0879 0.0312,-0.0876 0.004,2.4e-4 0.0269,0.0387 0.0506,0.0855 0.0979,0.19271 0.34294,0.421 0.62462,0.58197 1.07409,0.61384 2.86367,0.66884 4.09289,0.12577 0.39582,-0.17487 0.74449,-0.45788 0.87048,-0.70653 0.0241,-0.0475 0.0471,-0.0865 0.0512,-0.0868 0.004,-2.1e-4 0.0177,0.0329 0.0303,0.0735 0.0331,0.10735 0.0416,0.5543 0.0131,0.69231 -0.0384,0.18614 -0.15868,0.38982 -0.32073,0.54321 -0.51961,0.49183 -1.53263,0.79867 -2.59886,0.78721 -0.12719,-0.001 -0.25938,-0.004 -0.29375,-0.007 z m -0.0562,-1.66179 c -0.42125,-0.0412 -0.72349,-0.092 -0.99236,-0.16694 -0.75214,-0.20956 -1.27658,-0.56453 -1.45785,-0.98672 -0.0647,-0.15064 -0.0784,-0.25265 -0.0723,-0.53877 0.004,-0.21226 0.008,-0.24675 0.0385,-0.34147 0.19456,-0.61185 1.1284,-1.10203 2.32152,-1.21859 0.28334,-0.0277 0.80417,-0.0277 1.0875,0 1.05759,0.10329 1.92359,0.5018 2.23647,1.02903 0.10069,0.16969 0.11617,0.23802 0.12271,0.54147 0.008,0.3586 -0.0165,0.4665 -0.15345,0.68431 -0.21387,0.34008 -0.74215,0.65944 -1.37425,0.83081 -0.43927,0.11907 -0.77752,0.16262 -1.30648,0.16822 -0.21656,0.002 -0.41906,0.002 -0.45,-0.001 z"
       id="path26-8" />
  </g>
</svg>
