<?xml version="1.0" encoding="UTF-8" standalone="no"?>
<!-- Created with Inkscape (http://www.inkscape.org/) -->

<svg
   width="210mm"
   height="297mm"
   viewBox="0 0 210 297"
   version="1.1"
   id="svg1"
   xml:space="preserve"
   inkscape:version="1.3.2 (091e20ef0f, 2023-11-25, custom)"
   sodipodi:docname="head.svg"
   xmlns:inkscape="http://www.inkscape.org/namespaces/inkscape"
   xmlns:sodipodi="http://sodipodi.sourceforge.net/DTD/sodipodi-0.dtd"
   xmlns="http://www.w3.org/2000/svg"
   xmlns:svg="http://www.w3.org/2000/svg"><sodipodi:namedview
     id="namedview1"
     pagecolor="#ffffff"
     bordercolor="#000000"
     borderopacity="0.25"
     inkscape:showpageshadow="2"
     inkscape:pageopacity="0.0"
     inkscape:pagecheckerboard="0"
     inkscape:deskcolor="#d1d1d1"
     inkscape:document-units="mm"
     inkscape:zoom="0.733172"
     inkscape:cx="390.08582"
     inkscape:cy="561.25984"
     inkscape:window-width="1920"
     inkscape:window-height="1011"
     inkscape:window-x="0"
     inkscape:window-y="32"
     inkscape:window-maximized="1"
     inkscape:current-layer="layer1" /><defs
     id="defs1" /><g
     inkscape:label="Vrstva 1"
     inkscape:groupmode="layer"
     id="layer1"><path
       style="fill:#060606;stroke:none"
       d="m 68.065185,28.991909 c 2.59033,-0.96391 4.81801,-0.96391 7.40834,0 0.22124,-2.10549 1.56338,-5.61421 0.74781,-7.60723 -1.21868,-2.97811 -7.33365,-2.85162 -8.85233,-0.25139 -1.093448,1.87219 0.40259,5.8158 0.69618,7.85862 m 0.79375,5.02709 h 5.55625 l 0.79375,-3.70417 c -4.044,-1.50345 -7.01787,-0.9538 -6.35,3.70417 m -12.96458,12.17083 c 4.652425,-1.56542 10.96447,-5.18869 15.875,-5.18869 4.85337,0 11.29968,3.56669 15.875,5.18869 -2.69301,-14.93303 -29.060088,-14.91603 -31.75,0 m -2.116667,2.11667 c -0.222774,2.99988 -1.728403,8.8438 -0.364668,11.572564 1.477098,2.9556 5.475879,4.36226 6.741924,7.47744 0.914858,2.25106 -0.543552,5.06253 -0.259553,7.40833 0.352146,2.9087 4.836833,7.78442 7.111464,9.525 0,-5.52943 2.01613,-15.82764 -0.289554,-20.8287 -1.833782,-3.9775 -7.382757,-5.34866 -9.500029,-10.127554 2.774164,0.6031 9.391226,0.80253 11.352393,2.91304 1.74009,1.872604 1.26465,8.600794 1.34761,11.109884 h 3.70416 c 0.0839,-2.53768 -0.39193,-9.21001 1.34761,-11.121974 1.86771,-2.05283 8.40575,-2.31774 11.08781,-2.90095 -1.90942,5.182244 -7.31151,5.954514 -9.23545,10.127554 -2.30568,5.00106 -0.28955,15.29927 -0.28955,20.8287 2.27463,-1.74058 6.75932,-6.6163 7.11146,-9.525 0.284,-2.3458 -1.17441,-5.15727 -0.25955,-7.40833 1.26602,-3.11512 5.24275,-4.537 6.75035,-7.47744 1.37661,-2.684954 -0.15237,-8.600324 -0.37309,-11.572564 -5.57427,-1.45421 -12.22909,-5.77401 -17.99167,-5.77401 -5.76258,0 -12.417407,4.3198 -17.991667,5.77401 m 1.322917,15.345834 c 0,4.0945 -0.212027,7.37444 3.439583,10.05417 0.240974,-4.71456 0.631539,-6.84871 -3.439583,-10.05417 m 33.07292,0 c -3.60995,3.61104 -3.42112,5.23911 -3.175,10.05417 3.23928,-2.37714 4.20867,-6.22829 3.175,-10.05417 z"
       id="path1"
       inkscape:export-filename="../pic/head.png"
       inkscape:export-xdpi="167.74872"
       inkscape:export-ydpi="167.74872" /></g></svg>
