<?xml version="1.0" encoding="UTF-8" standalone="no"?>
<!-- Created with Inkscape (http://www.inkscape.org/) -->

<svg
   width="210mm"
   height="297mm"
   viewBox="0 0 210 297"
   version="1.1"
   id="svg1"
   xml:space="preserve"
   inkscape:version="1.3.2 (091e20ef0f, 2023-11-25, custom)"
   sodipodi:docname="legs.svg"
   xmlns:inkscape="http://www.inkscape.org/namespaces/inkscape"
   xmlns:sodipodi="http://sodipodi.sourceforge.net/DTD/sodipodi-0.dtd"
   xmlns="http://www.w3.org/2000/svg"
   xmlns:svg="http://www.w3.org/2000/svg"><sodipodi:namedview
     id="namedview1"
     pagecolor="#ffffff"
     bordercolor="#000000"
     borderopacity="0.25"
     inkscape:showpageshadow="2"
     inkscape:pageopacity="0.0"
     inkscape:pagecheckerboard="0"
     inkscape:deskcolor="#d1d1d1"
     inkscape:document-units="mm"
     inkscape:zoom="0.733172"
     inkscape:cx="308.24963"
     inkscape:cy="375.76449"
     inkscape:window-width="1920"
     inkscape:window-height="1011"
     inkscape:window-x="0"
     inkscape:window-y="32"
     inkscape:window-maximized="1"
     inkscape:current-layer="layer1" /><defs
     id="defs1" /><g
     inkscape:label="Vrstva 1"
     inkscape:groupmode="layer"
     id="layer1"><path
       style="fill:#020202;stroke:none"
       d="m 41.338302,0.06242646 c -2.163155,0.598736 -4.150413,4.53654504 -5.252954,6.32639104 -5.290221,8.5880895 -5.071154,13.2835555 -1.151706,22.4895805 0.997181,2.34219 4.403175,10.24983 7.706179,9.55086 5.190111,-1.09832 14.693896,-17.277065 13.646241,-22.515441 -0.528029,-2.640181 -3.922456,-5.614192 -5.576739,-7.6729165 -1.535465,-1.910865 -6.49115,-8.97558304 -9.371021,-8.17847404 m 105.805048,-0.05269 c -2.56022,0.173342 -5.54455,4.34655304 -7.08676,6.11450104 -2.10197,2.409672 -6.83695,6.5692045 -7.37644,9.7895825 -0.62163,3.710756 3.6883,10.392488 5.48974,13.493748 1.34903,2.32242 5.52694,9.47575 8.71547,9.05937 2.6235,-0.3426 4.94434,-5.12117 6.01438,-7.20728 4.54066,-8.852339 5.92669,-14.875033 0.80765,-23.5479205 -1.09733,-1.859141 -4.02424,-7.87397104 -6.56404,-7.70200104 M 52.958564,118.30757 c -2.184291,-0.92121 -6.132697,-1.7449 -7.654734,-3.61874 -3.292313,-4.0533 -2.010463,-17.354012 -2.466911,-22.575012 l -2.775461,-31.48542 c -0.395882,-4.52822 0.04428,-10.23416 -1.371315,-14.55208 -1.500696,-4.57751 -6.521441,-9.33215 -8.891617,-13.75833 -3.006914,-5.61526 -4.381281,-16.510108 -11.235797,-18.256254 1.953985,38.243854 11.097426,76.004444 19.314584,113.241666 14.330848,-4.48345 26.617465,13.70986 37.306251,20.10834 -0.824974,-15.72884 -0.961827,-30.35781 1.441829,-46.03751 4.573793,-29.836072 13.855343,-62.590942 3.849843,-92.3395795 -4.107668,1.1285325 -12.123595,2.1735265 -15.031,5.5040405 -3.213281,3.680912 -4.198944,10.996018 -6.704291,15.398047 -2.863556,5.03141 -10.617274,10.5646 -12.195715,15.62267 -1.651752,5.29299 1.129159,14.55391 1.609717,20.09608 1.507741,17.38845 4.698854,35.204562 4.804617,52.652082 M 108.52107,9.0346505 C 93.100676,54.882948 122.7545,101.62156 113.54815,147.67632 c 9.95047,-7.09498 23.74558,-24.69822 37.57083,-20.37292 6.36798,-37.831032 17.34223,-74.636532 19.31459,-113.241666 -6.75356,1.720437 -8.83622,13.355164 -11.70896,19.050004 -2.18277,4.32706 -6.99744,8.51111 -8.42124,12.96458 -1.38986,4.34725 -0.97094,10.00417 -1.36852,14.55208 -0.92522,10.58318 -1.95528,21.16002 -2.79754,31.75 -0.40816,5.13184 0.78836,18.329872 -2.44484,22.310432 -1.52204,1.87384 -5.47045,2.69753 -7.65474,3.61874 0.10219,-16.84767 2.90583,-34.299402 4.64504,-51.064582 0.60689,-5.85018 3.5335,-16.09104 1.76928,-21.67515 -1.58871,-5.0286 -9.24162,-10.37138 -12.08044,-15.36652 -2.53825,-4.466249 -3.56836,-11.93829 -6.81955,-15.662627 -2.89414,-3.315318 -10.93618,-4.375799 -15.03099,-5.5040405 M 28.352313,148.20549 c 9.601348,1.61618 25.516664,8.06078 30.883193,16.70159 1.685266,2.7135 1.491624,7.68012 1.925141,10.81507 3.044307,-0.59762 11.48298,-2.49253 13.349937,-5.03134 3.402917,-4.62752 -1.476388,-14.0785 -4.357624,-17.45824 -9.281475,-10.88732 -26.457417,-26.81781 -38.336069,-11.64167 -1.540438,1.96807 -2.77693,4.20747 -3.464578,6.61459 m 99.483337,27.51666 c 0.33501,-3.09697 0.28677,-8.15021 1.92514,-10.82721 5.31424,-8.68316 21.2919,-15.07497 30.88319,-16.68945 -0.85269,-2.39039 -1.93873,-4.59896 -3.50014,-6.61459 -11.08209,-14.30591 -25.70797,-1.2532 -35.39289,8.46667 -4.37513,4.39091 -11.16417,13.54714 -7.38408,20.44526 1.41178,2.57632 10.65789,4.66753 13.46878,5.21932 M 25.971063,155.65502 c -2.91875,0.96972 -5.760009,3.98115 -8.202084,5.81271 -6.694151,5.02062 -14.5127754,9.08602 -16.7588794,17.69401 -0.68090904,2.60951 -1.96177504,9.15509 0.158057,11.36447 1.548082,1.61347 6.049888,1.24769 8.134156,1.45366 9.0766344,0.89691 18.3752674,-0.51481 26.9875004,-3.38538 3.794508,-1.26474 16.164429,-4.72761 17.631353,-8.71734 4.16852,-11.33747 -9.997924,-19.46837 -18.425103,-22.32081 -2.531386,-0.85683 -6.864689,-2.78519 -9.525,-1.90132 m 135.466667,-0.14631 c -9.23209,0.83853 -24.19942,7.04367 -25.62686,17.03844 -0.27501,1.92564 -1.76559,6.36719 -0.34935,7.96489 2.35766,2.65972 7.68282,4.21971 10.89496,5.60392 12.18778,5.25212 24.92728,7.07711 38.1,5.38835 6.24255,-0.80029 4.66661,-9.347 3.0399,-13.93007 -2.89249,-8.14925 -11.49684,-12.52736 -18.12115,-17.49558 -2.14454,-1.60839 -5.05224,-4.83202 -7.9375,-4.56995 z"
       id="path1"
       inkscape:export-filename="legs.png"
       inkscape:export-xdpi="96"
       inkscape:export-ydpi="96" /></g></svg>
