<?xml version="1.0" encoding="UTF-8" standalone="no"?>
<!-- Created with Inkscape (http://www.inkscape.org/) -->

<svg
   width="210mm"
   height="297mm"
   viewBox="0 0 210 297"
   version="1.1"
   id="svg1"
   xml:space="preserve"
   inkscape:version="1.3.2 (091e20ef0f, 2023-11-25, custom)"
   sodipodi:docname="refresh.svg"
   inkscape:export-filename="refresh.png"
   inkscape:export-xdpi="96"
   inkscape:export-ydpi="96"
   xmlns:inkscape="http://www.inkscape.org/namespaces/inkscape"
   xmlns:sodipodi="http://sodipodi.sourceforge.net/DTD/sodipodi-0.dtd"
   xmlns="http://www.w3.org/2000/svg"
   xmlns:svg="http://www.w3.org/2000/svg"><sodipodi:namedview
     id="namedview1"
     pagecolor="#ffffff"
     bordercolor="#000000"
     borderopacity="0.25"
     inkscape:showpageshadow="2"
     inkscape:pageopacity="0.0"
     inkscape:pagecheckerboard="0"
     inkscape:deskcolor="#d1d1d1"
     inkscape:document-units="mm"
     inkscape:zoom="0.733172"
     inkscape:cx="205.27243"
     inkscape:cy="484.8794"
     inkscape:window-width="1920"
     inkscape:window-height="1011"
     inkscape:window-x="0"
     inkscape:window-y="32"
     inkscape:window-maximized="1"
     inkscape:current-layer="layer1" /><defs
     id="defs1" /><g
     inkscape:label="Vrstva 1"
     inkscape:groupmode="layer"
     id="layer1"><path
       style="fill:#e5e4e2;fill-opacity:1;stroke:none"
       d="m 37.135409,12.499836 v 53.42152 h 53.24165 c -1.578532,-2.72288 -4.617183,-4.97692 -6.835076,-7.19481 L 69.332218,44.516776 c 14.508855,-5.48823 26.827131,-10.55909 42.809162,-8.93153 35.24846,3.58961 63.55423,32.97484 65.98174,68.288784 0.7766,11.29756 -1.91833,21.35087 -5.18553,32.01693 l 15.8286,8.99353 c 4.92488,-13.61169 8.34837,-27.10908 7.34399,-41.72995 -2.8954,-42.148544 -34.69328,-78.202294 -76.77398,-84.790664 -14.47653,-2.26652 -29.244689,-1.02662 -43.168906,3.5305 -4.977549,1.62907 -9.766413,3.76762 -14.389635,6.22145 -1.305735,0.69303 -4.090137,3.10323 -5.575983,2.83571 -1.827188,-0.32898 -4.11564,-3.68094 -5.396114,-4.96141 -4.440568,-4.44058 -8.709255,-9.64103 -13.670153,-13.49029 m -16.36821,60.79621 c -4.839499,9.75156 -6.738636,21.59956 -7.021592,32.376684 -1.185138,45.13905 31.536383,85.72262 76.451582,93.00707 14.208691,2.30441 29.119221,1.29025 42.809161,-3.2519 5.072,-1.68281 10.05133,-3.71665 14.74938,-6.2766 1.33954,-0.72991 4.41495,-3.31755 5.93573,-3.01338 1.8462,0.36923 4.09544,3.67259 5.39611,4.97327 4.44059,4.44059 8.70927,9.64098 13.67015,13.49028 v -53.42152 h -53.24165 c 1.57852,2.72287 4.6172,4.97694 6.83508,7.19482 l 14.20976,14.20976 c -3.9263,1.34355 -7.56018,3.67708 -11.51171,5.08644 -9.14229,3.26072 -19.26316,4.84817 -28.95914,4.04219 C 66.032253,178.88206 37.03,152.87256 32.337263,118.6234 30.592303,105.8881 33.107572,94.826556 36.415927,82.649306 Z"
       id="path1"
       inkscape:export-filename="refresh.png"
       inkscape:export-xdpi="96"
       inkscape:export-ydpi="96" /></g></svg>
