<?xml version="1.0" encoding="UTF-8" standalone="no"?>
<!-- Created with Inkscape (http://www.inkscape.org/) -->

<svg
   width="210mm"
   height="297mm"
   viewBox="0 0 210 297"
   version="1.1"
   id="svg1"
   xml:space="preserve"
   inkscape:version="1.3.2 (091e20ef0f, 2023-11-25, custom)"
   sodipodi:docname="servus_babishus.svg"
   xmlns:inkscape="http://www.inkscape.org/namespaces/inkscape"
   xmlns:sodipodi="http://sodipodi.sourceforge.net/DTD/sodipodi-0.dtd"
   xmlns="http://www.w3.org/2000/svg"
   xmlns:svg="http://www.w3.org/2000/svg"><sodipodi:namedview
     id="namedview1"
     pagecolor="#ffffff"
     bordercolor="#000000"
     borderopacity="0.25"
     inkscape:showpageshadow="2"
     inkscape:pageopacity="0.0"
     inkscape:pagecheckerboard="0"
     inkscape:deskcolor="#d1d1d1"
     inkscape:document-units="mm"
     showguides="false"
     inkscape:zoom="1.4631382"
     inkscape:cx="207.77258"
     inkscape:cy="243.65436"
     inkscape:window-width="1920"
     inkscape:window-height="1011"
     inkscape:window-x="0"
     inkscape:window-y="32"
     inkscape:window-maximized="1"
     inkscape:current-layer="layer1" /><defs
     id="defs1"><rect
       x="98.267716"
       y="79.984148"
       width="272.75965"
       height="108.99223"
       id="rect4" /><rect
       x="345.00474"
       y="114.82735"
       width="246.73702"
       height="35.306533"
       id="rect3" /><clipPath
       clipPathUnits="userSpaceOnUse"
       id="clipPath24"><rect
         style="fill:none;stroke:#000000;stroke-width:0.999999;stroke-linecap:butt;stroke-linejoin:bevel;paint-order:stroke markers fill;stop-color:#000000"
         id="rect24"
         width="44.999748"
         height="77.937294"
         x="251.53429"
         y="222.73541" /></clipPath><clipPath
       clipPathUnits="userSpaceOnUse"
       id="clipPath7"><rect
         style="fill:#000000;stroke:#000000;stroke-width:0;stroke-linejoin:bevel;paint-order:stroke markers fill;stop-color:#000000"
         id="rect5-4"
         width="20"
         height="200"
         x="530"
         y="595" /></clipPath><clipPath
       clipPathUnits="userSpaceOnUse"
       id="clipPath5"><path
         id="path5"
         style="stroke-width:0.1;stroke-linecap:square;paint-order:markers fill stroke;stop-color:#000000"
         d="m 438.25066,553.76374 859.87054,0 v 201.39554 l -859.87054,0 z"
         sodipodi:nodetypes="ccccc" /></clipPath><clipPath
       clipPathUnits="userSpaceOnUse"
       id="clipPath1"><rect
         style="fill:#dfdfdf;stroke:#402308;stroke-width:1.826;stroke-linecap:round;stroke-linejoin:round"
         id="rect2-9"
         width="105.23787"
         height="101.4538"
         x="61.775936"
         y="47.046207" /></clipPath><rect
       x="98.267715"
       y="79.984146"
       width="272.75964"
       height="108.99223"
       id="rect4-1" /><rect
       x="98.267715"
       y="79.984146"
       width="272.75964"
       height="108.99223"
       id="rect4-1-4" /><rect
       x="98.267715"
       y="79.984146"
       width="272.75964"
       height="108.99223"
       id="rect4-1-1" /><rect
       x="98.267715"
       y="79.984146"
       width="272.75964"
       height="108.99223"
       id="rect4-1-5" /><rect
       x="98.267715"
       y="79.984146"
       width="272.75964"
       height="108.99223"
       id="rect4-2" /></defs><g
     inkscape:label="Vrstva 1"
     inkscape:groupmode="layer"
     id="layer1"><rect
       style="fill:#e0dfdf;fill-opacity:1;stroke:#402308;stroke-width:4.29599;stroke-linecap:round;stroke-linejoin:round;stroke-dasharray:none;stroke-opacity:1"
       id="rect1"
       width="95.70401"
       height="115.70401"
       x="12.147995"
       y="12.147995" /><rect
       style="fill:#402308;fill-opacity:1;stroke:#402308;stroke-width:3.237;stroke-linecap:round;stroke-linejoin:round;stroke-dasharray:none;stroke-opacity:1"
       id="rect2"
       width="76.762817"
       height="8.7628155"
       x="21.618587"
       y="21.618587" /><rect
       style="fill:#402308;fill-opacity:1;stroke:#402308;stroke-width:2.01995;stroke-linecap:round;stroke-linejoin:round;stroke-dasharray:none;stroke-opacity:1"
       id="rect25"
       width="27.980047"
       height="9.9800472"
       x="21.009975"
       y="36.009975" /><rect
       style="fill:#402308;fill-opacity:1;stroke:#402308;stroke-width:2.01995;stroke-linecap:round;stroke-linejoin:round;stroke-dasharray:none;stroke-opacity:1"
       id="rect25-7"
       width="27.980047"
       height="9.9800472"
       x="21.009975"
       y="51.009975" /><rect
       style="fill:#402308;fill-opacity:1;stroke:#402308;stroke-width:2.01995;stroke-linecap:round;stroke-linejoin:round;stroke-dasharray:none;stroke-opacity:1"
       id="rect25-5"
       width="27.980047"
       height="9.9800472"
       x="21.009975"
       y="66.009972" /><rect
       style="fill:#402308;fill-opacity:1;stroke:#402308;stroke-width:2.01995;stroke-linecap:round;stroke-linejoin:round;stroke-dasharray:none;stroke-opacity:1"
       id="rect25-5-3"
       width="27.980047"
       height="9.9800472"
       x="21.009975"
       y="81.009972" /><rect
       style="fill:#402308;fill-opacity:1;stroke:#402308;stroke-width:4.72268;stroke-linecap:round;stroke-linejoin:round;stroke-dasharray:none;stroke-opacity:1"
       id="rect25-5-3-1"
       width="75.277328"
       height="20.277325"
       x="22.36134"
       y="97.361328" /><path
       style="fill:#e0dfdf;stroke:none;stroke-width:1.08724;fill-opacity:1"
       d="m 25.947608,66.003746 c -1.200086,0.143809 -2.399202,0.366604 -3.589674,0.559748 -0.275363,0.04467 -0.55132,0.08764 -0.82725,0.129767 -0.134231,0.02049 -0.285436,0.03249 -0.361431,0.143024 -0.101138,0.147097 -0.07736,0.384595 -0.100724,0.549955 -0.07112,0.503346 -0.08163,1.019487 -0.05545,1.525383 0.05573,1.077281 0.163137,2.174174 0.642424,3.188301 0.453968,0.960552 1.264194,1.825505 2.164898,2.515254 0.502043,0.384459 1.010576,0.759194 1.565866,1.089143 0.169118,0.100489 0.427676,0.315417 0.649982,0.29422 0.198771,-0.01895 0.434064,-0.204182 0.590893,-0.302352 0.43674,-0.273389 0.862412,-0.552128 1.27042,-0.856137 0.943471,-0.70299 1.815661,-1.540746 2.344239,-2.515071 0.556684,-1.026132 0.755821,-2.255686 0.757948,-3.375848 9.75e-4,-0.513265 0.002,-1.02549 -0.05658,-1.537887 -0.01944,-0.169981 0.0085,-0.44225 -0.109599,-0.587146 -0.08166,-0.100226 -0.220749,-0.110977 -0.350856,-0.130839 -0.271035,-0.04137 -0.541771,-0.08451 -0.812478,-0.127366 -0.870953,-0.137884 -1.741775,-0.279488 -2.614701,-0.408088 -0.231748,-0.03414 -0.46335,-0.07157 -0.694299,-0.109403 -0.131021,-0.02146 -0.280062,-0.06067 -0.413625,-0.04466 m 0.05909,0.907377 v 4.001005 h 2.614701 0.797705 l 0.398853,0.0125 c -0.111383,0.334682 -0.201413,0.669817 -0.373867,0.987748 -0.486729,0.897318 -1.332927,1.649024 -2.226061,2.268378 -0.370442,0.256885 -0.775818,0.570502 -1.211331,0.744882 v -4.001005 h -3.811259 c -0.191498,-0.83578 -0.291811,-1.686497 -0.222907,-2.538138 0.02357,-0.2913 0.02664,-0.58673 0.08996,-0.875219 z"
       id="path29" /><path
       style="fill:#e0dfdf;stroke:none;stroke-width:1.01922;fill-opacity:1"
       d="m 26.027721,37.880665 h -0.03576 c -0.07958,-0.295542 -0.303304,-0.587318 -0.481288,-0.820218 -1.059987,-1.387052 -3.040485,-1.437004 -4.044051,0.05858 -0.175756,0.261922 -0.302503,0.565411 -0.378141,0.878806 -0.411301,1.704153 0.692971,3.266403 1.630262,4.491673 0.219396,0.286805 0.446324,0.566178 0.679221,0.839749 0.301424,0.354063 0.601155,0.711821 0.913422,1.054566 0.383662,0.421109 0.782129,0.827265 1.179974,1.232076 0.151555,0.154209 0.320508,0.408633 0.554237,0.382187 0.177412,-0.02008 0.288404,-0.181128 0.411206,-0.302504 0.263084,-0.260022 0.509295,-0.538226 0.768781,-0.802257 1.137849,-1.157776 2.296591,-2.472155 3.114254,-3.92708 0.720975,-1.282882 1.021767,-2.900786 0.01146,-4.120623 -1.062313,-1.282635 -2.897113,-1.027056 -3.857293,0.234349 -0.172822,0.22704 -0.388912,0.513347 -0.466292,0.80069 z"
       id="path27" /><path
       style="fill:#e0dfdf;stroke:none;stroke-width:1.15715;fill-opacity:1"
       d="m 21.025884,51.026102 v 1.951905 c 0,0.224824 -0.07383,0.610024 0.02789,0.813294 0.08276,0.165384 0.276731,0.304368 0.406225,0.433758 l 0.868223,0.867513 2.550404,2.548321 c 0.385863,0.385548 0.903669,0.771441 1.212899,1.21994 0.08465,0.122768 -0.04517,0.215483 -0.12762,0.298207 -0.140552,0.141018 -0.48427,0.372946 -0.533261,0.569306 -0.02424,0.09714 0.09432,0.184486 0.153433,0.243988 l 0.596879,0.596416 h 0.02714 l 1.112407,-1.111502 c 0.08917,-0.0891 0.270861,-0.350921 0.406979,-0.350921 0.166139,0 0.430779,0.374702 0.542639,0.486471 l 0.949619,0.948842 c 0.170351,0.17021 0.350889,0.389726 0.596903,0.446517 0.524551,0.121089 1.329101,-0.714464 1.160582,-1.232702 -0.08405,-0.258497 -0.376928,-0.464035 -0.563679,-0.650635 -0.441346,-0.440985 -0.87374,-0.996537 -1.38373,-1.355488 v -0.02711 c 0.56963,-0.40093 1.053459,-1.025489 1.546522,-1.518149 -0.162905,-0.231074 -0.396336,-0.424569 -0.596903,-0.623504 -0.05956,-0.05906 -0.146969,-0.177525 -0.244188,-0.153307 -0.19652,0.04895 -0.428638,0.392387 -0.569771,0.532823 -0.101582,0.101071 -0.189012,0.217959 -0.325583,0.105259 -0.436771,-0.360421 -0.820239,-0.81639 -1.220939,-1.216762 L 25.204203,52.435815 24.227451,51.459863 C 24.097012,51.32953 23.942993,51.107591 23.766208,51.042464 23.535959,50.957646 23.169767,51.0261 22.925118,51.0261 h -1.899237 m 6.945781,5.801497 v 0.02711 l -0.569772,0.542196 h -0.02713 l -3.47289,-3.470054 c -0.553261,-0.552806 -1.259126,-1.096455 -1.709314,-1.735027 0.298286,0 0.844806,-0.105824 1.112411,0.02786 0.196198,0.09802 0.359814,0.335072 0.515507,0.486826 0.325043,0.31682 0.655235,0.627987 0.976749,0.949239 z"
       id="path28" /><path
       style="fill:#a57164;fill-opacity:1;stroke-width:1.06166"
       d="m 27.66248,90.992949 c -0.330035,-0.03712 -0.458388,-0.05488 -0.604729,-0.0837 -0.725579,-0.1429 -1.289985,-0.416125 -1.608186,-0.778514 -0.135078,-0.153835 -0.209871,-0.295173 -0.244221,-0.461511 -0.0273,-0.132198 -0.01966,-0.568118 0.01188,-0.67804 0.01167,-0.04068 0.02522,-0.0738 0.03011,-0.07361 0.0049,1.99e-4 0.03414,0.04515 0.06499,0.09991 0.279834,0.496501 1.085488,0.886366 2.112646,1.022333 0.278722,0.03689 1.04489,0.0368 1.33125,-1.67e-4 0.880515,-0.113664 1.585349,-0.406137 1.9625,-0.814343 0.055,-0.05953 0.125312,-0.15283 0.15625,-0.207335 0.03094,-0.05451 0.06002,-0.09947 0.06462,-0.09993 0.0046,-4.55e-4 0.01867,0.03246 0.03125,0.07314 0.01936,0.0626 0.02288,0.119441 0.02288,0.369835 0,0.275335 -0.002,0.302077 -0.02926,0.385344 -0.04873,0.149028 -0.112516,0.256334 -0.231991,0.390257 -0.4029,0.451622 -1.221965,0.771206 -2.182503,0.851574 -0.15472,0.01294 -0.784668,0.01632 -0.8875,0.0047 z M 23.51873,90.10625 c -0.0275,-0.0032 -0.14,-0.01567 -0.25,-0.02777 -0.970617,-0.106771 -1.811976,-0.493063 -2.111606,-0.969486 -0.137067,-0.217939 -0.161254,-0.325495 -0.154018,-0.684889 0.0043,-0.214721 0.0096,-0.274116 0.03007,-0.337098 l 0.02482,-0.07645 0.04542,0.08427 c 0.281548,0.522393 1.107865,0.92766 2.152818,1.05585 0.288654,0.03541 0.822446,0.04197 1.129542,0.0139 0.139998,-0.0128 0.270069,-0.02678 0.289047,-0.03105 l 0.03451,-0.0078 0.0063,0.293751 c 0.0056,0.265068 0.0095,0.305917 0.03936,0.418349 0.01821,0.06853 0.0412,0.14224 0.0511,0.163801 l 0.01799,0.0392 -0.06001,0.009 c -0.267685,0.04002 -0.449254,0.05302 -0.801537,0.05736 -0.216563,0.0027 -0.41625,0.0023 -0.44375,-9.19e-4 z m 4.25625,-0.767141 c -1.15422,-0.06261 -2.130154,-0.4802 -2.464693,-1.054594 -0.09995,-0.171609 -0.116557,-0.254105 -0.116557,-0.578949 0,-0.230181 0.0039,-0.289015 0.02385,-0.362791 0.01312,-0.04843 0.02718,-0.08783 0.03125,-0.08755 0.0041,2.76e-4 0.0299,0.04193 0.0574,0.09256 0.06446,0.118676 0.244325,0.314558 0.3875,0.421997 0.75668,0.567816 2.210531,0.798565 3.45,0.547568 0.430618,-0.0872 0.757431,-0.203043 1.0875,-0.385474 0.22615,-0.124994 0.368445,-0.233519 0.503169,-0.383757 0.07713,-0.08601 0.173707,-0.22713 0.195808,-0.286112 0.0097,-0.02586 0.03114,0.02594 0.05066,0.122297 0.02284,0.112766 0.02627,0.506336 0.0054,0.619961 -0.04495,0.244739 -0.224884,0.49741 -0.502561,0.705717 -0.114715,0.08606 -0.403322,0.244783 -0.564977,0.310724 -0.424837,0.173297 -0.94552,0.285568 -1.47904,0.318917 -0.244099,0.01526 -0.375908,0.01516 -0.66471,-5.11e-4 z m -4.3,-0.89537 c -0.02406,-0.0032 -0.128125,-0.01541 -0.23125,-0.02722 -0.627508,-0.07187 -1.21358,-0.261792 -1.617283,-0.52411 -0.306226,-0.198979 -0.515322,-0.443451 -0.591321,-0.691361 -0.02654,-0.08656 -0.0289,-0.117856 -0.0289,-0.383085 0,-0.237029 0.004,-0.30335 0.02222,-0.369835 0.01222,-0.04455 0.02629,-0.08094 0.03125,-0.08086 0.005,8.5e-5 0.02842,0.03812 0.05212,0.08451 0.05323,0.104213 0.187491,0.260152 0.317879,0.369208 0.568936,0.475857 1.624566,0.751666 2.683316,0.701079 0.268685,-0.01284 0.533043,-0.03605 0.577588,-0.05072 0.02052,-0.0068 0.02187,0.02161 0.02187,0.458044 v 0.465246 l -0.04062,0.008 c -0.136005,0.02695 -0.315879,0.03758 -0.709375,0.04191 -0.244063,0.0027 -0.463438,0.0023 -0.4875,-8.67e-4 z m 4.3,-0.850868 c -1.165691,-0.068 -2.130148,-0.480981 -2.464693,-1.055385 -0.09995,-0.171609 -0.116557,-0.254105 -0.116557,-0.57895 0,-0.23018 0.0039,-0.289015 0.02385,-0.36279 0.01312,-0.04843 0.02718,-0.08783 0.03125,-0.08755 0.0041,2.76e-4 0.0299,0.04193 0.0574,0.09256 0.06446,0.118677 0.244325,0.314559 0.3875,0.421998 0.75668,0.567816 2.210531,0.798565 3.45,0.547568 0.430618,-0.08721 0.757431,-0.203044 1.0875,-0.385474 0.22615,-0.124994 0.368445,-0.233519 0.503169,-0.383757 0.07713,-0.08601 0.173707,-0.227131 0.195808,-0.286113 0.01,-0.02668 0.03155,0.02717 0.05193,0.129789 0.01598,0.08043 0.01909,0.155979 0.01479,0.359268 -0.0063,0.299554 -0.02197,0.368009 -0.122859,0.538026 -0.281994,0.475211 -1.008089,0.84726 -1.93768,0.992862 -0.364362,0.05707 -0.802096,0.07891 -1.161409,0.05796 z m -4.2,-0.798652 c -1.355664,-0.08756 -2.412679,-0.631902 -2.555782,-1.31616 -0.02262,-0.108146 -0.02622,-0.508273 -0.0056,-0.621289 0.0558,-0.305753 0.331942,-0.627794 0.732871,-0.854691 0.700446,-0.396403 1.835153,-0.576683 2.837878,-0.450875 l 0.128125,0.01607 v 1.588293 1.588294 l -0.134375,0.01587 c -0.335362,0.03961 -0.719436,0.05281 -1.003125,0.03448 z m 4.19375,-0.85916 c -1.346168,-0.09283 -2.347662,-0.592331 -2.551755,-1.272705 -0.03451,-0.115054 -0.03411,-0.60095 6.09e-4,-0.729103 0.01312,-0.04843 0.02718,-0.08787 0.03125,-0.08763 0.0041,2.3e-4 0.02686,0.03873 0.05065,0.08554 0.09794,0.192728 0.342936,0.420997 0.624616,0.581976 1.074089,0.613837 2.863671,0.668829 4.092893,0.125768 0.395823,-0.174872 0.744495,-0.457869 0.870483,-0.70652 0.02406,-0.04748 0.04711,-0.08653 0.05123,-0.08676 0.0041,-2.31e-4 0.01775,0.03287 0.0303,0.07354 0.03312,0.107347 0.04156,0.554285 0.01307,0.692285 -0.03842,0.186155 -0.158684,0.389839 -0.320732,0.543223 -0.519607,0.491826 -1.532628,0.798668 -2.598862,0.787189 -0.127187,-0.0014 -0.259375,-0.0044 -0.29375,-0.0068 z m -0.05625,-1.661787 c -0.421251,-0.04118 -0.723486,-0.09203 -0.992353,-0.166942 -0.752144,-0.209572 -1.276583,-0.564525 -1.457858,-0.986716 -0.06468,-0.150642 -0.07837,-0.252646 -0.07232,-0.538769 0.0045,-0.212269 0.0084,-0.246766 0.0385,-0.341472 0.194567,-0.611849 1.12841,-1.10204 2.321529,-1.218612 0.283334,-0.02768 0.804166,-0.02768 1.0875,0 1.057586,0.103334 1.923587,0.501798 2.236464,1.029052 0.100692,0.169684 0.116176,0.238003 0.122714,0.541466 0.0077,0.358579 -0.01647,0.466496 -0.153451,0.684305 -0.213873,0.34008 -0.742149,0.659445 -1.374255,0.830792 -0.43927,0.119074 -0.77752,0.162629 -1.306472,0.168227 -0.216563,0.0023 -0.419063,0.0017 -0.45,-0.0014 z"
       id="path26" /><path
       style="fill:#000000;fill-opacity:1;stroke:none"
       d="m 95.17186,90.412332 c -2.50303,1.01848 -0.72481,4.2837 0.008,6.08542 1.27997,3.14841 5.32358,13.746148 3.34697,16.804448 -2.16618,3.35162 -10.37394,3.8689 -13.93786,4.96531 -5.11156,1.57253 -1.39224,2.145 1.85198,1.07044 1.15191,-0.38155 2.28625,-0.81452 3.43958,-1.19125 1.73159,-0.56562 3.49266,-0.99412 5.29167,-1.27604 l -6.87917,6.61459 6.35,3.43958 v 0.52917 c -5.39282,2.24157 -5.02128,8.76734 -1.05833,12.7 0.007,-2.83488 -2.14388,-5.72892 -1.92746,-8.39861 0.19148,-2.36191 6.40557,-6.33178 8.27746,-7.74098 l 3.43958,16.66875 3.175,-6.35 h 0.26458 c 2.24282,3.08942 2.39483,4.16102 2.64584,7.9375 h 0.26458 c 2.19717,-5.94059 4.10635,-5.87357 5.55625,0.52917 h 0.26458 l -0.26458,-5.82083 c 4.26451,-1.67673 6.19378,-3.52601 9.525,-6.61459 l -1.05834,7.40834 c 2.43852,-2.67985 2.11649,-8.75126 2.11667,-12.17084 l 11.64167,5.29167 c -1.65732,3.71693 -3.33273,7.31861 -3.96875,11.37708 1.61311,-1.29319 5.53904,-9.83322 4.54885,-11.75047 -0.81565,-1.57929 -3.83707,-2.51876 -5.3426,-3.33078 v -0.26458 c 4.96285,-3.53614 1.45858,-6.40836 -2.64584,-9.26042 v -0.26458 c 4.48967,1.50701 9.24462,4.36383 14.02292,4.49792 -7.81478,-6.35924 -20.85812,-2.86519 -16.40417,-16.66875 5.27241,0.87391 12.41209,-12.658278 5.82084,-15.081248 7e-5,-4.62111 0.58621,-9.61763 -1.24668,-14.0229 -2.94837,-7.086269 -14.50862,-12.612999 -21.77207,-9.789599 l -0.26458,-0.79375 C 98.03029,69.57353 93.62655,78.227412 95.1722,90.412332 m 26.19374,-21.960419 c 9.54123,3.212419 17.40761,20.441949 5.82084,25.929169 l -3.43959,-12.17083 0.79375,-0.26459 -0.52916,-1.05833 h 0.52916 l -0.52916,-1.05833 h 1.05803 c -1.07647,-2.06294 -2.20983,-3.74471 -4.49792,-4.49792 v 1.05833 c -2.64606,-1.4199 -7.80459,-2.1315 -6.61458,2.38125 l -2.91041,-1.5875 0.26458,0.79375 -2.64583,-1.05833 0.26458,1.05833 -1.05833,0.26459 h -0.26459 c -1.77096,-1.30962 -8.95154,-2.06537 -8.73125,-1.05834 h -0.26458 l -2.38125,11.37709 c -4.9516,-11.00121 7.20872,-20.922449 16.93333,-21.833559 2.91195,-0.27283 5.39484,1.87408 8.20208,1.72522 m 0.52917,9.789589 -0.52917,-2.11667 c 2.33597,1.27291 1.31593,3.38271 1.85209,5.55625 v 0.26458 l -0.26459,2.91042 v 0.26458 c 3.11432,2.80266 3.31409,6.93616 2.91042,10.84792 3.34858,-0.21586 5.14462,-6.19557 8.99583,-3.70417 -3.40841,-0.31324 -7.87653,6.61817 -5.55625,9.260418 l 1.05834,-4.762498 1.05833,0.26458 c -0.79239,-1.91736 -0.13399,-3.51722 1.85208,-4.23333 -0.60906,3.82912 -0.28033,6.11231 -2.91041,9.260418 l 1.32291,-0.52917 c -1.27289,2.92701 -3.52975,1.65555 -5.19099,3.56496 -3.67204,4.22061 -6.63841,8.89352 -10.41942,13.10379 2.58768,-1.40083 3.41556,-3.6316 4.7625,-6.08542 l 5.02708,-3.43958 c -1.94214,7.27246 -2.36479,12.20199 -8.73125,16.90374 -1.70057,1.25591 -4.04813,3.60339 -6.34754,2.59418 -2.808,-1.23241 -4.44132,-4.64005 -6.07212,-7.0625 -1.22195,-1.81512 -2.68985,-3.48804 -3.45534,-5.55625 l 1.5875,1.05833 c -6.70682,-8.40984 -8.65649,-28.343668 -3.175,-37.835418 l 0.79375,0.52917 1.32292,-1.85208 -0.79375,1.32291 0.26458,0.26459 c 0.57033,-0.62245 2.95053,-2.73605 2.64584,-0.52917 l 3.17499,0.79375 v -0.26458 l -2.11666,-0.52917 c 0.65998,-1.79996 3.54097,0.62111 2.11666,0.79375 v 0.26458 l 1.85209,-0.79375 c 1.68751,0.31704 4.31505,1.05645 5.82083,0 h 1.05833 c -1.05633,-0.7393 -1.44434,-1.36291 -1.5875,-2.64583 l 2.64584,1.32292 -0.52917,-1.85209 5.55625,2.64584 m -21.16667,2.91041 c 2.59125,-0.55224 4.24692,-0.82266 6.87917,-0.26458 -1.92101,-1.51335 -5.06206,-1.32515 -6.87917,0.26458 m 1.05834,1.05834 c 4.18389,-0.24058 10.19888,-1.96417 14.02291,-0.79375 -1.73496,-1.73494 -11.85417,-0.46086 -14.02291,0.79375 m 11.90625,1.32291 1.5875,-1.05833 -1.5875,1.05833 m -8.99583,-0.52916 0.26458,1.5875 h 0.26458 l -0.52916,-1.5875 m 1.85208,0 v 2.91041 h 0.52917 l -0.52917,-2.91041 m 2.91042,0.26458 -0.79375,2.91042 0.79375,-2.91042 m 1.85208,0 -0.52917,1.32292 h 0.26459 l 0.26458,-1.32292 m -13.75833,5.29167 1.85208,-1.85209 1.5875,-0.52916 h 0.26458 c 3.7664,1.70132 5.46193,2.53493 3.70417,7.14375 l -0.52917,-0.26459 -2.11666,2.38125 2.11666,-1.5875 h 0.26459 c -0.74748,2.83041 -4.86132,11.505948 -2.91042,13.758338 l 1.5875,-6.35 3.43958,0.79375 -3.175,-1.85209 c 1.15365,-3.767938 4.19991,-8.667108 2.73099,-12.673378 -1.47011,-4.00951 -7.74913,-2.33188 -8.8164,1.03172 m 12.43541,-1.32292 c 3.19787,-1.43401 6.56456,0.0314 9.78958,0.52917 -1.44572,-2.3456 -9.09939,-4.42539 -9.78958,-0.52917 m -4.7625,3.43958 v -0.52916 l -1.5875,-0.79375 0.52917,-0.52917 -1.32292,-1.5875 c -5.96016,1.80795 -1.89617,4.37347 2.38125,3.43958 m 5.82084,-1.5875 2.64583,-0.79375 v 0.26459 l -2.38125,2.38125 2.91041,-2.11667 -1.58749,2.38125 6.34999,-0.79375 c -1.72451,-2.35222 -5.74162,-4.00387 -7.93749,-1.32292 m -8.99584,-0.79375 v 0.26459 h -0.79375 l 0.79375,-0.26459 m 15.08125,0.79375 v 0.26459 l -2.91042,-0.52917 2.91042,0.26458 m -16.13958,-0.52916 -0.26458,0.26458 0.26458,-0.26458 m 2.64583,0.52916 -0.79375,-0.52916 0.79375,0.52916 m -7.40833,0 v 1.5875 h -0.26458 l 0.26458,-1.5875 m 6.52639,0.44097 -0.0882,0.1764 0.0882,-0.1764 m 12.78819,0.0882 v 0.79375 h -0.26462 l 0.26458,-0.79375 m 1.5875,0.26458 v 0.52917 l -1.05833,0.26458 v -1.05833 l 1.05833,0.26458 m 2.64583,-0.26458 v 0.52917 h 1.32292 l -1.32292,-0.52917 m -15.87499,0.79375 -0.79375,-0.52917 0.79375,0.52917 m -1.32292,-0.26458 -0.26458,0.26458 0.26458,-0.26458 m 12.17083,0.52916 -0.26458,0.26459 0.26458,-0.26459 m 3.70417,0.26459 c 0.9534,0.95764 1.88076,1.02467 3.175,0.79375 v -0.26459 l -3.175,-0.52916 m -23.28333,0.52916 v 0.79375 h -0.26459 l 0.26459,-0.79375 m 1.05833,0 v 0.79375 h -0.26458 l 0.26458,-0.79375 m 3.175,0 c 0.92898,0.84804 1.65003,1.15406 2.91042,1.05834 l -2.91042,-1.05834 m 11.1125,0 c 0.5458,1.8242 1.5686,2.97245 3.43958,3.43959 v -0.26459 l -3.43958,-3.175 m 23.28333,6.61459 h -0.26458 l 0.26458,-5.29167 c 2.10884,1.2813 0.98965,3.60188 0,5.29167 m -31.48541,-4.7625 -2.64584,1.32291 2.64584,-1.32291 m 26.45833,2.64583 -1.85209,7.672918 h 0.26459 c 0.88457,-2.12057 1.75573,-5.371738 1.5875,-7.672918 m -17.72708,3.175 -0.79375,1.852078 c -0.66287,-1.905418 -2.36561,-0.59781 -3.175,0.52917 1.66598,-0.2881 3.48521,0.28567 4.49791,-1.32292 2.16545,2.4362 4.02965,5.42081 2.91042,8.73125 2.75891,-2.62642 -0.49132,-6.93942 -2.11667,-9.260408 l -1.32291,-0.52917 m -8.46667,9.789578 c 2.46785,-1.3858 9.04197,-1.31907 11.64166,-0.26458 -2.49539,-3.90329 -9.71414,-4.5 -11.64166,0.26458 m 7.67292,-2.64583 v 0.26458 l -2.11667,-0.26458 h 2.11667 m -2.64584,0 v 0.26458 h -1.85208 l 1.85208,-0.26458 m 2.64584,1.05833 -4.49792,0.26459 4.49792,-0.26459 m 4.23333,2.11667 0.26458,3.70417 h 0.52917 l -0.79375,-3.70417 m -12.17083,0.26458 -0.79375,2.64584 0.79375,-2.64584 m 2.38125,1.85209 5.82083,0.52916 c -1.51905,-1.65365 -3.94578,-1.5093 -5.82083,-0.52916 m -3.43959,2.11666 c 3.74978,4.75753 12.89519,5.44816 16.66875,0 -1.39465,0.29361 -13.54449,4.98277 -13.22916,2.38125 l -3.43959,-2.38125 m -1.5875,1.05834 c -0.61015,7.90273 -0.6885,13.68133 -10.05416,8.46666 2.89211,-2.85193 6.38888,-6.69097 10.05416,-8.46666 m 26.19375,0.52916 c 1.98675,1.46908 8.63844,5.77407 8.6384,8.42706 -4e-5,3.82818 -5.94817,2.91224 -7.62833,1.1138 -1.47233,-1.57596 -1.27126,-7.43971 -1.01007,-9.54086 m -25.4,0.79375 c 2.67068,4.39253 5.8716,10.24802 10.31875,12.96459 v 0.52916 l -7.40833,6.35 c -1.80183,-5.17633 -4.28296,-14.44955 -2.91042,-19.84375 m 4.49792,0 -0.26458,0.26459 0.26458,-0.26459 m -9.525,0.52917 -0.26458,0.26458 0.26458,-0.26458 m 29.63333,0.26458 c 0.337,4.36485 1.20798,17.60217 -6.08477,17.69398 -2.44983,0.0308 -4.55441,-4.01728 -7.14439,-4.72939 v -0.26459 c 6.35943,-2.01896 10.27498,-7.12925 13.22916,-12.7 m -18.25625,1.05834 -0.26458,0.26458 c 0.85368,1.37621 1.52569,2.52259 3.175,2.91042 l -2.91042,-3.175 m 10.58333,17.19791 c -1.94572,0.88703 -9.8768,2.97926 -9.50405,-1.58757 0.53517,-6.55672 8.01476,-0.3365 9.50405,1.58757 m 0,16.13959 v 1.32291 c -3.05803,-0.0464 -1.56062,2.52729 0.79375,2.64584 l -0.26458,-3.96875 h -0.52917 m 6.61459,0 0.79375,0.79375 -0.79375,-0.79375 m -26.45833,0.26458 v 3.70417 c 3.42384,-0.10299 3.28927,-3.52601 0,-3.70417 m 10.84791,3.70417 0.79375,-0.79375 2.38125,0.79375 c -0.7488,-3.69299 -2.5643,-3.88806 -3.175,0 m -9.26041,-3.175 0.26458,0.26458 v 0.52917 l -1.05833,0.26458 0.26458,-1.05833 h 0.52917 m 4.23333,2.38125 -1.5875,-0.52917 h 1.85208 c -2.17344,-4.04667 -3.24624,3.04855 -0.26458,0.52917 m 0.79375,-2.11667 v 0.79375 h 1.05833 l -1.05833,2.11667 h 2.38125 v -0.52917 h -1.32292 l 1.32292,-2.11667 -2.38125,-0.26458 m 8.20208,0 c -0.21818,1.14867 -0.27065,2.00282 0.52917,2.91042 l 1.05833,-2.11667 v 2.11667 h 0.79375 c -0.0553,-1.83818 -0.48226,-2.6791 -2.38125,-2.91042 m 6.61458,0 c -0.21817,1.14867 -0.27063,2.00282 0.52917,2.91042 l 1.05833,-2.91042 h -1.5875 m 4.49792,2.11667 h -1.85208 v -0.26459 l 1.85208,-0.26458 c -1.62517,-3.80146 -3.66487,2.92515 0,0.52917 m 0.52917,-2.11667 -0.26459,3.96875 c 1.17233,-1.1091 1.05597,-2.44594 1.05834,-3.96875 h -0.79375 m 3.96875,2.11667 -1.5875,0.26458 1.5875,-0.79375 c -1.59999,-4.17155 -3.40041,3.22704 0,0.52917 m -17.99167,-1.85209 0.26459,1.05834 -0.26459,-1.05834 m -7.14375,0.52917 v 0.26458 h -1.05833 l 1.05833,-0.26458 m 24.34167,0.26458 h -0.79375 l 0.26458,-0.52916 0.52917,0.52916 m -10.05417,-0.26458 -0.26458,1.5875 c -0.70559,-0.71125 -0.74438,-1.24891 0.26458,-1.5875 m 5.55625,0 v 0.26458 h -1.05833 l 1.05833,-0.26458 m -23.01875,0.79375 v 0.52917 l -1.05833,0.26458 -0.26458,-1.05833 z"
       id="path1"
       clip-path="url(#clipPath1)"
       transform="matrix(0.72325319,0,0,0.72325319,-4.3556003,-12.403101)"
       inkscape:export-filename="babis.png"
       inkscape:export-xdpi="96"
       inkscape:export-ydpi="96" /><text
       xml:space="preserve"
       transform="scale(0.26458333)"
       id="text1"
       style="fill:#000000;stroke-linejoin:round;font-size:33.33333333px;-inkscape-font-specification:'Cantarell, Normal';font-family:Cantarell;stroke:#402308;stroke-width:6.90141732;stroke-linecap:round;white-space:pre;shape-inside:url(#rect3)" /><text
       xml:space="preserve"
       transform="matrix(0.26458333,0,0,0.26458333,7.5681634,-0.65711706)"
       id="text3"
       style="font-style:normal;font-variant:normal;font-weight:normal;font-stretch:normal;font-size:40px;font-family:Aladin;-inkscape-font-specification:'Aladin, Normal';font-variant-ligatures:normal;font-variant-caps:normal;font-variant-numeric:normal;font-variant-east-asian:normal;white-space:pre;shape-inside:url(#rect4);fill:#e0dfdf;fill-opacity:1;stroke:#e0dfdf;stroke-width:0;stroke-linecap:round;stroke-linejoin:round;stroke-dasharray:none;stroke-opacity:1"><tspan
         x="98.267578"
         y="114.51129"
         id="tspan3">servus Babišus</tspan></text><text
       xml:space="preserve"
       transform="matrix(0.26458333,0,0,0.26458333,-1.8809531,74.950041)"
       id="text3-47"
       style="font-style:normal;font-variant:normal;font-weight:normal;font-stretch:normal;font-size:33.3333px;font-family:Aladin;-inkscape-font-specification:'Aladin, Normal';font-variant-ligatures:normal;font-variant-caps:normal;font-variant-numeric:normal;font-variant-east-asian:normal;text-align:center;white-space:pre;shape-inside:url(#rect4-2);display:inline;fill:#e0dfdf;fill-opacity:1;stroke:#e0dfdf;stroke-width:0;stroke-linecap:round;stroke-linejoin:round;stroke-dasharray:none;stroke-opacity:1"
       x="123.51659"
       y="0"><tspan
         x="125.11419"
         y="108.75678"
         id="tspan4">Dostaneš koblihu za
</tspan><tspan
         x="110.19753"
         y="150.4234"
         id="tspan5">každý vyhraný souboj.</tspan></text><text
       xml:space="preserve"
       transform="matrix(0.25933615,0,0,0.25544959,10.266702,15.574432)"
       id="text3-4"
       style="font-style:normal;font-variant:normal;font-weight:normal;font-stretch:normal;font-size:40px;font-family:Aladin;-inkscape-font-specification:'Aladin, Normal';font-variant-ligatures:normal;font-variant-caps:normal;font-variant-numeric:normal;font-variant-east-asian:normal;white-space:pre;shape-inside:url(#rect4-1);display:inline;fill:#e0dfdf;fill-opacity:1;stroke:#e0dfdf;stroke-width:0;stroke-linecap:round;stroke-linejoin:round;stroke-dasharray:none;stroke-opacity:1"><tspan
         x="98.267578"
         y="114.51129"
         id="tspan6">50</tspan></text><text
       xml:space="preserve"
       transform="matrix(0.32341553,0,0,0.25475543,4.1669925,30.664582)"
       id="text3-4-0"
       style="font-style:normal;font-variant:normal;font-weight:normal;font-stretch:normal;font-size:40px;font-family:Aladin;-inkscape-font-specification:'Aladin, Normal';font-variant-ligatures:normal;font-variant-caps:normal;font-variant-numeric:normal;font-variant-east-asian:normal;white-space:pre;shape-inside:url(#rect4-1-4);display:inline;fill:#e0dfdf;fill-opacity:1;stroke:#e0dfdf;stroke-width:0;stroke-linecap:round;stroke-linejoin:round;stroke-dasharray:none;stroke-opacity:1"><tspan
         x="98.267578"
         y="114.51129"
         id="tspan7">10</tspan></text><text
       xml:space="preserve"
       transform="matrix(0.36127237,0,0,0.25303644,0.44083581,45.822042)"
       id="text3-4-5"
       style="font-style:normal;font-variant:normal;font-weight:normal;font-stretch:normal;font-size:40px;font-family:Aladin;-inkscape-font-specification:'Aladin, Normal';font-variant-ligatures:normal;font-variant-caps:normal;font-variant-numeric:normal;font-variant-east-asian:normal;white-space:pre;shape-inside:url(#rect4-1-1);display:inline;fill:#e0dfdf;fill-opacity:1;stroke:#e0dfdf;stroke-width:0;stroke-linecap:round;stroke-linejoin:round;stroke-dasharray:none;stroke-opacity:1"><tspan
         x="98.267578"
         y="114.51129"
         id="tspan8">12</tspan></text><text
       xml:space="preserve"
       transform="matrix(0.25933615,0,0,0.25544959,10.266702,60.574434)"
       id="text3-4-9"
       style="font-style:normal;font-variant:normal;font-weight:normal;font-stretch:normal;font-size:40px;font-family:Aladin;-inkscape-font-specification:'Aladin, Normal';font-variant-ligatures:normal;font-variant-caps:normal;font-variant-numeric:normal;font-variant-east-asian:normal;white-space:pre;shape-inside:url(#rect4-1-5);display:inline;fill:#e0dfdf;fill-opacity:1;stroke:#e0dfdf;stroke-width:0;stroke-linecap:round;stroke-linejoin:round;stroke-dasharray:none;stroke-opacity:1"><tspan
         x="98.267578"
         y="114.51129"
         id="tspan9">50</tspan></text></g></svg>
