<?xml version="1.0" encoding="UTF-8" standalone="no"?>
<!-- Created with Inkscape (http://www.inkscape.org/) -->

<svg
   width="210mm"
   height="297mm"
   viewBox="0 0 210 297"
   version="1.1"
   id="svg1"
   inkscape:version="1.3.2 (091e20ef0f, 2023-11-25, custom)"
   sodipodi:docname="silver_coins.svg"
   xmlns:inkscape="http://www.inkscape.org/namespaces/inkscape"
   xmlns:sodipodi="http://sodipodi.sourceforge.net/DTD/sodipodi-0.dtd"
   xmlns="http://www.w3.org/2000/svg"
   xmlns:svg="http://www.w3.org/2000/svg">
  <sodipodi:namedview
     id="namedview1"
     pagecolor="#ffffff"
     bordercolor="#000000"
     borderopacity="0.25"
     inkscape:showpageshadow="2"
     inkscape:pageopacity="0.0"
     inkscape:pagecheckerboard="0"
     inkscape:deskcolor="#d1d1d1"
     inkscape:document-units="mm"
     inkscape:zoom="0.733172"
     inkscape:cx="396.9055"
     inkscape:cy="561.25984"
     inkscape:window-width="1920"
     inkscape:window-height="1011"
     inkscape:window-x="0"
     inkscape:window-y="32"
     inkscape:window-maximized="1"
     inkscape:current-layer="layer1" />
  <defs
     id="defs1" />
  <g
     inkscape:label="Vrstva 1"
     inkscape:groupmode="layer"
     id="layer1">
    <path
       style="fill:#838996;fill-opacity:1;stroke-width:1.06166"
       d="m 52.170812,55.76588 c -0.330035,-0.0371 -0.458388,-0.0549 -0.604729,-0.0837 -0.725579,-0.1429 -1.289985,-0.41613 -1.608186,-0.77851 -0.135078,-0.15383 -0.209871,-0.29518 -0.244221,-0.46151 -0.0273,-0.13219 -0.01966,-0.56811 0.01188,-0.67805 0.01167,-0.0407 0.02522,-0.0738 0.03011,-0.0736 0.0049,2e-4 0.03414,0.0452 0.06499,0.0999 0.279834,0.49651 1.085488,0.88637 2.112646,1.02235 0.278722,0.0369 1.04489,0.0368 1.33125,-1.6e-4 0.880515,-0.11368 1.585349,-0.40614 1.9625,-0.81435 0.055,-0.0595 0.125312,-0.15283 0.15625,-0.20735 0.03094,-0.0545 0.06002,-0.0995 0.06462,-0.0999 0.0046,-4.5e-4 0.01867,0.0325 0.03125,0.0731 0.01936,0.0626 0.02288,0.11944 0.02288,0.36983 0,0.27533 -0.002,0.30207 -0.02926,0.38535 -0.04873,0.14902 -0.112516,0.25633 -0.231991,0.39025 -0.4029,0.45163 -1.221965,0.7712 -2.182503,0.85158 -0.15472,0.0129 -0.784668,0.0163 -0.8875,0.005 z m -4.14375,-0.88671 c -0.0275,-0.003 -0.14,-0.0157 -0.25,-0.0278 -0.970617,-0.10677 -1.811976,-0.49306 -2.111606,-0.96948 -0.137067,-0.21794 -0.161254,-0.32549 -0.154018,-0.68489 0.0043,-0.21472 0.0096,-0.27411 0.03007,-0.33708 l 0.02482,-0.0765 0.04542,0.0843 c 0.281548,0.52238 1.107865,0.92766 2.152818,1.05584 0.288654,0.0354 0.822446,0.042 1.129542,0.0139 0.139998,-0.0128 0.270069,-0.0268 0.289047,-0.0311 l 0.03451,-0.008 0.0063,0.29374 c 0.0056,0.26506 0.0095,0.30592 0.03936,0.41836 0.01821,0.0685 0.0412,0.14224 0.0511,0.16382 l 0.01799,0.0392 -0.06001,0.009 c -0.267685,0.04 -0.449254,0.053 -0.801537,0.0574 -0.216563,0.003 -0.41625,0.002 -0.44375,-9.1e-4 z m 4.25625,-0.76713 c -1.15422,-0.0626 -2.130154,-0.48021 -2.464693,-1.0546 -0.09995,-0.1716 -0.116557,-0.2541 -0.116557,-0.57893 0,-0.23019 0.0039,-0.28902 0.02385,-0.36281 0.01312,-0.0484 0.02718,-0.0878 0.03125,-0.0876 0.0041,2.9e-4 0.0299,0.0419 0.0574,0.0926 0.06446,0.11866 0.244325,0.31455 0.3875,0.42199 0.75668,0.56781 2.210531,0.79856 3.45,0.54757 0.430618,-0.0872 0.757431,-0.20305 1.0875,-0.38547 0.22615,-0.125 0.368445,-0.23352 0.503169,-0.38376 0.07713,-0.086 0.173707,-0.22714 0.195808,-0.28611 0.0097,-0.0259 0.03114,0.0259 0.05066,0.12227 0.02284,0.11278 0.02627,0.50635 0.0054,0.61998 -0.04495,0.24473 -0.224884,0.49741 -0.502561,0.70572 -0.114715,0.0861 -0.403322,0.24477 -0.564977,0.31074 -0.424837,0.17328 -0.94552,0.28555 -1.47904,0.31889 -0.244099,0.0153 -0.375908,0.0152 -0.66471,-4.9e-4 z m -4.3,-0.89538 c -0.02406,-0.003 -0.128125,-0.0154 -0.23125,-0.0272 -0.627508,-0.0719 -1.21358,-0.2618 -1.617283,-0.52414 -0.306226,-0.19899 -0.515322,-0.44345 -0.591321,-0.69137 -0.02654,-0.0866 -0.0289,-0.11785 -0.0289,-0.3831 0,-0.23703 0.004,-0.30334 0.02222,-0.36982 0.01222,-0.0446 0.02629,-0.0809 0.03125,-0.0809 0.005,9e-5 0.02842,0.0381 0.05212,0.0845 0.05323,0.10421 0.187491,0.26014 0.317879,0.3692 0.568936,0.47584 1.624566,0.75168 2.683316,0.70109 0.268685,-0.0128 0.533043,-0.0361 0.577588,-0.0507 0.02052,-0.007 0.02187,0.0216 0.02187,0.45807 v 0.46524 l -0.04062,0.008 c -0.136005,0.0269 -0.315879,0.0376 -0.709375,0.0419 -0.244063,0.003 -0.463438,0.002 -0.4875,-8.6e-4 z m 4.3,-0.85086 c -1.165691,-0.068 -2.130148,-0.48098 -2.464693,-1.05539 -0.09995,-0.1716 -0.116557,-0.2541 -0.116557,-0.57895 0,-0.23017 0.0039,-0.28902 0.02385,-0.36278 0.01312,-0.0484 0.02718,-0.0878 0.03125,-0.0875 0.0041,2.7e-4 0.0299,0.0419 0.0574,0.0926 0.06446,0.11867 0.244325,0.31455 0.3875,0.42199 0.75668,0.56783 2.210531,0.79858 3.45,0.54757 0.430618,-0.0872 0.757431,-0.20303 1.0875,-0.38547 0.22615,-0.125 0.368445,-0.23352 0.503169,-0.38376 0.07713,-0.086 0.173707,-0.22712 0.195808,-0.28611 0.01,-0.0267 0.03155,0.0272 0.05193,0.12981 0.01598,0.0804 0.01909,0.15598 0.01479,0.35926 -0.0063,0.29955 -0.02197,0.368 -0.122859,0.53802 -0.281994,0.47522 -1.008089,0.84727 -1.93768,0.99287 -0.364362,0.0571 -0.802096,0.0789 -1.161409,0.058 z m -4.2,-0.79865 c -1.355664,-0.0876 -2.412679,-0.63192 -2.555782,-1.31617 -0.02262,-0.10814 -0.02622,-0.50828 -0.0056,-0.62129 0.0558,-0.30574 0.331942,-0.62779 0.732871,-0.85469 0.700446,-0.39639 1.835153,-0.57669 2.837878,-0.45087 l 0.128125,0.0161 v 1.5883 1.5883 l -0.134375,0.0159 c -0.335362,0.0396 -0.719436,0.0528 -1.003125,0.0345 z m 4.19375,-0.85918 c -1.346168,-0.0928 -2.347662,-0.59233 -2.551755,-1.27269 -0.03451,-0.11505 -0.03411,-0.60096 6.09e-4,-0.72911 0.01312,-0.0484 0.02718,-0.0879 0.03125,-0.0876 0.0041,2.4e-4 0.02686,0.0387 0.05065,0.0855 0.09794,0.19271 0.342936,0.421 0.624616,0.58197 1.074089,0.61384 2.863671,0.66884 4.092893,0.12577 0.395823,-0.17487 0.744495,-0.45788 0.870483,-0.70653 0.02406,-0.0475 0.04711,-0.0865 0.05123,-0.0868 0.0041,-2.1e-4 0.01775,0.0329 0.0303,0.0735 0.03312,0.10735 0.04156,0.5543 0.01307,0.69231 -0.03842,0.18614 -0.158684,0.38982 -0.320732,0.54321 -0.519607,0.49183 -1.532628,0.79867 -2.598862,0.78721 -0.127187,-10e-4 -0.259375,-0.004 -0.29375,-0.007 z m -0.05625,-1.66179 c -0.421251,-0.0412 -0.723486,-0.092 -0.992353,-0.16694 -0.752144,-0.20956 -1.276583,-0.56453 -1.457858,-0.98672 -0.06468,-0.15064 -0.07837,-0.25265 -0.07232,-0.53877 0.0045,-0.21226 0.0084,-0.24675 0.0385,-0.34147 0.194567,-0.61185 1.12841,-1.10203 2.321529,-1.21859 0.283334,-0.0277 0.804166,-0.0277 1.0875,0 1.057586,0.10329 1.923587,0.5018 2.236464,1.02903 0.100692,0.16969 0.116176,0.23802 0.122714,0.54147 0.0077,0.3586 -0.01647,0.4665 -0.153451,0.68431 -0.213873,0.34008 -0.742149,0.65944 -1.374255,0.83081 -0.43927,0.11907 -0.77752,0.16262 -1.306472,0.16822 -0.216563,0.002 -0.419063,0.002 -0.45,-0.001 z"
       id="path26-8" />
  </g>
</svg>
