<?xml version="1.0" encoding="UTF-8" standalone="no"?>
<!-- Created with Inkscape (http://www.inkscape.org/) -->

<svg
   width="210mm"
   height="297mm"
   viewBox="0 0 210 297"
   version="1.1"
   id="svg1"
   xml:space="preserve"
   inkscape:version="1.3.2 (091e20ef0f, 2023-11-25, custom)"
   sodipodi:docname="slave_card.svg"
   xmlns:inkscape="http://www.inkscape.org/namespaces/inkscape"
   xmlns:sodipodi="http://sodipodi.sourceforge.net/DTD/sodipodi-0.dtd"
   xmlns="http://www.w3.org/2000/svg"
   xmlns:svg="http://www.w3.org/2000/svg"><sodipodi:namedview
     id="namedview1"
     pagecolor="#ffffff"
     bordercolor="#000000"
     borderopacity="0.25"
     inkscape:showpageshadow="2"
     inkscape:pageopacity="0.0"
     inkscape:pagecheckerboard="0"
     inkscape:deskcolor="#d1d1d1"
     inkscape:document-units="mm"
     showguides="false"
     inkscape:zoom="1.4631382"
     inkscape:cx="128.49093"
     inkscape:cy="245.02128"
     inkscape:window-width="1920"
     inkscape:window-height="1011"
     inkscape:window-x="0"
     inkscape:window-y="32"
     inkscape:window-maximized="1"
     inkscape:current-layer="layer1" /><defs
     id="defs1"><clipPath
       clipPathUnits="userSpaceOnUse"
       id="clipPath24"><rect
         style="fill:none;stroke:#000000;stroke-width:0.999999;stroke-linecap:butt;stroke-linejoin:bevel;paint-order:stroke markers fill;stop-color:#000000"
         id="rect24"
         width="44.999748"
         height="77.937294"
         x="251.53429"
         y="222.73541" /></clipPath><clipPath
       clipPathUnits="userSpaceOnUse"
       id="clipPath7"><rect
         style="fill:#000000;stroke:#000000;stroke-width:0;stroke-linejoin:bevel;paint-order:stroke markers fill;stop-color:#000000"
         id="rect5-4"
         width="20"
         height="200"
         x="530"
         y="595" /></clipPath><clipPath
       clipPathUnits="userSpaceOnUse"
       id="clipPath5"><path
         id="path5"
         style="stroke-width:0.1;stroke-linecap:square;paint-order:markers fill stroke;stop-color:#000000"
         d="m 438.25066,553.76374 859.87054,0 v 201.39554 l -859.87054,0 z"
         sodipodi:nodetypes="ccccc" /></clipPath></defs><g
     inkscape:label="Vrstva 1"
     inkscape:groupmode="layer"
     id="layer1"><rect
       style="fill:#e0dfdf;fill-opacity:1;stroke:#402308;stroke-width:4.29599;stroke-linecap:round;stroke-linejoin:round;stroke-dasharray:none;stroke-opacity:1"
       id="rect1"
       width="95.70401"
       height="115.70401"
       x="12.147995"
       y="12.147995" /><rect
       style="fill:#402308;fill-opacity:1;stroke:#402308;stroke-width:3.237;stroke-linecap:round;stroke-linejoin:round;stroke-dasharray:none;stroke-opacity:1"
       id="rect2"
       width="76.762817"
       height="8.7628155"
       x="21.618587"
       y="21.618587" /><rect
       style="fill:#402308;fill-opacity:1;stroke:#402308;stroke-width:2.01995;stroke-linecap:round;stroke-linejoin:round;stroke-dasharray:none;stroke-opacity:1"
       id="rect25"
       width="27.980047"
       height="9.9800472"
       x="21.009975"
       y="36.009975" /><rect
       style="fill:#402308;fill-opacity:1;stroke:#402308;stroke-width:2.01995;stroke-linecap:round;stroke-linejoin:round;stroke-dasharray:none;stroke-opacity:1"
       id="rect25-7"
       width="27.980047"
       height="9.9800472"
       x="21.009975"
       y="51.009975" /><rect
       style="fill:#402308;fill-opacity:1;stroke:#402308;stroke-width:2.01995;stroke-linecap:round;stroke-linejoin:round;stroke-dasharray:none;stroke-opacity:1"
       id="rect25-5"
       width="27.980047"
       height="9.9800472"
       x="21.009975"
       y="66.009972" /><rect
       style="fill:#402308;fill-opacity:1;stroke:#402308;stroke-width:2.01995;stroke-linecap:round;stroke-linejoin:round;stroke-dasharray:none;stroke-opacity:1"
       id="rect25-5-3"
       width="27.980047"
       height="9.9800472"
       x="21.009975"
       y="81.009972" /><rect
       style="fill:#402308;fill-opacity:1;stroke:#402308;stroke-width:4.72268;stroke-linecap:round;stroke-linejoin:round;stroke-dasharray:none;stroke-opacity:1"
       id="rect25-5-3-1"
       width="75.277328"
       height="20.277325"
       x="22.36134"
       y="97.361328" /><path
       style="fill:#e0dfdf;stroke:none;stroke-width:1.08724;fill-opacity:1"
       d="m 25.947608,66.003746 c -1.200086,0.143809 -2.399202,0.366604 -3.589674,0.559748 -0.275363,0.04467 -0.55132,0.08764 -0.82725,0.129767 -0.134231,0.02049 -0.285436,0.03249 -0.361431,0.143024 -0.101138,0.147097 -0.07736,0.384595 -0.100724,0.549955 -0.07112,0.503346 -0.08163,1.019487 -0.05545,1.525383 0.05573,1.077281 0.163137,2.174174 0.642424,3.188301 0.453968,0.960552 1.264194,1.825505 2.164898,2.515254 0.502043,0.384459 1.010576,0.759194 1.565866,1.089143 0.169118,0.100489 0.427676,0.315417 0.649982,0.29422 0.198771,-0.01895 0.434064,-0.204182 0.590893,-0.302352 0.43674,-0.273389 0.862412,-0.552128 1.27042,-0.856137 0.943471,-0.70299 1.815661,-1.540746 2.344239,-2.515071 0.556684,-1.026132 0.755821,-2.255686 0.757948,-3.375848 9.75e-4,-0.513265 0.002,-1.02549 -0.05658,-1.537887 -0.01944,-0.169981 0.0085,-0.44225 -0.109599,-0.587146 -0.08166,-0.100226 -0.220749,-0.110977 -0.350856,-0.130839 -0.271035,-0.04137 -0.541771,-0.08451 -0.812478,-0.127366 -0.870953,-0.137884 -1.741775,-0.279488 -2.614701,-0.408088 -0.231748,-0.03414 -0.46335,-0.07157 -0.694299,-0.109403 -0.131021,-0.02146 -0.280062,-0.06067 -0.413625,-0.04466 m 0.05909,0.907377 v 4.001005 h 2.614701 0.797705 l 0.398853,0.0125 c -0.111383,0.334682 -0.201413,0.669817 -0.373867,0.987748 -0.486729,0.897318 -1.332927,1.649024 -2.226061,2.268378 -0.370442,0.256885 -0.775818,0.570502 -1.211331,0.744882 v -4.001005 h -3.811259 c -0.191498,-0.83578 -0.291811,-1.686497 -0.222907,-2.538138 0.02357,-0.2913 0.02664,-0.58673 0.08996,-0.875219 z"
       id="path29" /><path
       style="fill:#e0dfdf;stroke:none;stroke-width:1.01922;fill-opacity:1"
       d="m 26.027721,37.880665 h -0.03576 c -0.07958,-0.295542 -0.303304,-0.587318 -0.481288,-0.820218 -1.059987,-1.387052 -3.040485,-1.437004 -4.044051,0.05858 -0.175756,0.261922 -0.302503,0.565411 -0.378141,0.878806 -0.411301,1.704153 0.692971,3.266403 1.630262,4.491673 0.219396,0.286805 0.446324,0.566178 0.679221,0.839749 0.301424,0.354063 0.601155,0.711821 0.913422,1.054566 0.383662,0.421109 0.782129,0.827265 1.179974,1.232076 0.151555,0.154209 0.320508,0.408633 0.554237,0.382187 0.177412,-0.02008 0.288404,-0.181128 0.411206,-0.302504 0.263084,-0.260022 0.509295,-0.538226 0.768781,-0.802257 1.137849,-1.157776 2.296591,-2.472155 3.114254,-3.92708 0.720975,-1.282882 1.021767,-2.900786 0.01146,-4.120623 -1.062313,-1.282635 -2.897113,-1.027056 -3.857293,0.234349 -0.172822,0.22704 -0.388912,0.513347 -0.466292,0.80069 z"
       id="path27" /><path
       style="fill:#e0dfdf;stroke:none;stroke-width:1.15715;fill-opacity:1"
       d="m 21.025884,51.026102 v 1.951905 c 0,0.224824 -0.07383,0.610024 0.02789,0.813294 0.08276,0.165384 0.276731,0.304368 0.406225,0.433758 l 0.868223,0.867513 2.550404,2.548321 c 0.385863,0.385548 0.903669,0.771441 1.212899,1.21994 0.08465,0.122768 -0.04517,0.215483 -0.12762,0.298207 -0.140552,0.141018 -0.48427,0.372946 -0.533261,0.569306 -0.02424,0.09714 0.09432,0.184486 0.153433,0.243988 l 0.596879,0.596416 h 0.02714 l 1.112407,-1.111502 c 0.08917,-0.0891 0.270861,-0.350921 0.406979,-0.350921 0.166139,0 0.430779,0.374702 0.542639,0.486471 l 0.949619,0.948842 c 0.170351,0.17021 0.350889,0.389726 0.596903,0.446517 0.524551,0.121089 1.329101,-0.714464 1.160582,-1.232702 -0.08405,-0.258497 -0.376928,-0.464035 -0.563679,-0.650635 -0.441346,-0.440985 -0.87374,-0.996537 -1.38373,-1.355488 v -0.02711 c 0.56963,-0.40093 1.053459,-1.025489 1.546522,-1.518149 -0.162905,-0.231074 -0.396336,-0.424569 -0.596903,-0.623504 -0.05956,-0.05906 -0.146969,-0.177525 -0.244188,-0.153307 -0.19652,0.04895 -0.428638,0.392387 -0.569771,0.532823 -0.101582,0.101071 -0.189012,0.217959 -0.325583,0.105259 -0.436771,-0.360421 -0.820239,-0.81639 -1.220939,-1.216762 L 25.204203,52.435815 24.227451,51.459863 C 24.097012,51.32953 23.942993,51.107591 23.766208,51.042464 23.535959,50.957646 23.169767,51.0261 22.925118,51.0261 h -1.899237 m 6.945781,5.801497 v 0.02711 l -0.569772,0.542196 h -0.02713 l -3.47289,-3.470054 c -0.553261,-0.552806 -1.259126,-1.096455 -1.709314,-1.735027 0.298286,0 0.844806,-0.105824 1.112411,0.02786 0.196198,0.09802 0.359814,0.335072 0.515507,0.486826 0.325043,0.31682 0.655235,0.627987 0.976749,0.949239 z"
       id="path28" /><path
       style="fill:#a57164;fill-opacity:1;stroke-width:1.06166"
       d="m 27.66248,90.992949 c -0.330035,-0.03712 -0.458388,-0.05488 -0.604729,-0.0837 -0.725579,-0.1429 -1.289985,-0.416125 -1.608186,-0.778514 -0.135078,-0.153835 -0.209871,-0.295173 -0.244221,-0.461511 -0.0273,-0.132198 -0.01966,-0.568118 0.01188,-0.67804 0.01167,-0.04068 0.02522,-0.0738 0.03011,-0.07361 0.0049,1.99e-4 0.03414,0.04515 0.06499,0.09991 0.279834,0.496501 1.085488,0.886366 2.112646,1.022333 0.278722,0.03689 1.04489,0.0368 1.33125,-1.67e-4 0.880515,-0.113664 1.585349,-0.406137 1.9625,-0.814343 0.055,-0.05953 0.125312,-0.15283 0.15625,-0.207335 0.03094,-0.05451 0.06002,-0.09947 0.06462,-0.09993 0.0046,-4.55e-4 0.01867,0.03246 0.03125,0.07314 0.01936,0.0626 0.02288,0.119441 0.02288,0.369835 0,0.275335 -0.002,0.302077 -0.02926,0.385344 -0.04873,0.149028 -0.112516,0.256334 -0.231991,0.390257 -0.4029,0.451622 -1.221965,0.771206 -2.182503,0.851574 -0.15472,0.01294 -0.784668,0.01632 -0.8875,0.0047 z M 23.51873,90.10625 c -0.0275,-0.0032 -0.14,-0.01567 -0.25,-0.02777 -0.970617,-0.106771 -1.811976,-0.493063 -2.111606,-0.969486 -0.137067,-0.217939 -0.161254,-0.325495 -0.154018,-0.684889 0.0043,-0.214721 0.0096,-0.274116 0.03007,-0.337098 l 0.02482,-0.07645 0.04542,0.08427 c 0.281548,0.522393 1.107865,0.92766 2.152818,1.05585 0.288654,0.03541 0.822446,0.04197 1.129542,0.0139 0.139998,-0.0128 0.270069,-0.02678 0.289047,-0.03105 l 0.03451,-0.0078 0.0063,0.293751 c 0.0056,0.265068 0.0095,0.305917 0.03936,0.418349 0.01821,0.06853 0.0412,0.14224 0.0511,0.163801 l 0.01799,0.0392 -0.06001,0.009 c -0.267685,0.04002 -0.449254,0.05302 -0.801537,0.05736 -0.216563,0.0027 -0.41625,0.0023 -0.44375,-9.19e-4 z m 4.25625,-0.767141 c -1.15422,-0.06261 -2.130154,-0.4802 -2.464693,-1.054594 -0.09995,-0.171609 -0.116557,-0.254105 -0.116557,-0.578949 0,-0.230181 0.0039,-0.289015 0.02385,-0.362791 0.01312,-0.04843 0.02718,-0.08783 0.03125,-0.08755 0.0041,2.76e-4 0.0299,0.04193 0.0574,0.09256 0.06446,0.118676 0.244325,0.314558 0.3875,0.421997 0.75668,0.567816 2.210531,0.798565 3.45,0.547568 0.430618,-0.0872 0.757431,-0.203043 1.0875,-0.385474 0.22615,-0.124994 0.368445,-0.233519 0.503169,-0.383757 0.07713,-0.08601 0.173707,-0.22713 0.195808,-0.286112 0.0097,-0.02586 0.03114,0.02594 0.05066,0.122297 0.02284,0.112766 0.02627,0.506336 0.0054,0.619961 -0.04495,0.244739 -0.224884,0.49741 -0.502561,0.705717 -0.114715,0.08606 -0.403322,0.244783 -0.564977,0.310724 -0.424837,0.173297 -0.94552,0.285568 -1.47904,0.318917 -0.244099,0.01526 -0.375908,0.01516 -0.66471,-5.11e-4 z m -4.3,-0.89537 c -0.02406,-0.0032 -0.128125,-0.01541 -0.23125,-0.02722 -0.627508,-0.07187 -1.21358,-0.261792 -1.617283,-0.52411 -0.306226,-0.198979 -0.515322,-0.443451 -0.591321,-0.691361 -0.02654,-0.08656 -0.0289,-0.117856 -0.0289,-0.383085 0,-0.237029 0.004,-0.30335 0.02222,-0.369835 0.01222,-0.04455 0.02629,-0.08094 0.03125,-0.08086 0.005,8.5e-5 0.02842,0.03812 0.05212,0.08451 0.05323,0.104213 0.187491,0.260152 0.317879,0.369208 0.568936,0.475857 1.624566,0.751666 2.683316,0.701079 0.268685,-0.01284 0.533043,-0.03605 0.577588,-0.05072 0.02052,-0.0068 0.02187,0.02161 0.02187,0.458044 v 0.465246 l -0.04062,0.008 c -0.136005,0.02695 -0.315879,0.03758 -0.709375,0.04191 -0.244063,0.0027 -0.463438,0.0023 -0.4875,-8.67e-4 z m 4.3,-0.850868 c -1.165691,-0.068 -2.130148,-0.480981 -2.464693,-1.055385 -0.09995,-0.171609 -0.116557,-0.254105 -0.116557,-0.57895 0,-0.23018 0.0039,-0.289015 0.02385,-0.36279 0.01312,-0.04843 0.02718,-0.08783 0.03125,-0.08755 0.0041,2.76e-4 0.0299,0.04193 0.0574,0.09256 0.06446,0.118677 0.244325,0.314559 0.3875,0.421998 0.75668,0.567816 2.210531,0.798565 3.45,0.547568 0.430618,-0.08721 0.757431,-0.203044 1.0875,-0.385474 0.22615,-0.124994 0.368445,-0.233519 0.503169,-0.383757 0.07713,-0.08601 0.173707,-0.227131 0.195808,-0.286113 0.01,-0.02668 0.03155,0.02717 0.05193,0.129789 0.01598,0.08043 0.01909,0.155979 0.01479,0.359268 -0.0063,0.299554 -0.02197,0.368009 -0.122859,0.538026 -0.281994,0.475211 -1.008089,0.84726 -1.93768,0.992862 -0.364362,0.05707 -0.802096,0.07891 -1.161409,0.05796 z m -4.2,-0.798652 c -1.355664,-0.08756 -2.412679,-0.631902 -2.555782,-1.31616 -0.02262,-0.108146 -0.02622,-0.508273 -0.0056,-0.621289 0.0558,-0.305753 0.331942,-0.627794 0.732871,-0.854691 0.700446,-0.396403 1.835153,-0.576683 2.837878,-0.450875 l 0.128125,0.01607 v 1.588293 1.588294 l -0.134375,0.01587 c -0.335362,0.03961 -0.719436,0.05281 -1.003125,0.03448 z m 4.19375,-0.85916 c -1.346168,-0.09283 -2.347662,-0.592331 -2.551755,-1.272705 -0.03451,-0.115054 -0.03411,-0.60095 6.09e-4,-0.729103 0.01312,-0.04843 0.02718,-0.08787 0.03125,-0.08763 0.0041,2.3e-4 0.02686,0.03873 0.05065,0.08554 0.09794,0.192728 0.342936,0.420997 0.624616,0.581976 1.074089,0.613837 2.863671,0.668829 4.092893,0.125768 0.395823,-0.174872 0.744495,-0.457869 0.870483,-0.70652 0.02406,-0.04748 0.04711,-0.08653 0.05123,-0.08676 0.0041,-2.31e-4 0.01775,0.03287 0.0303,0.07354 0.03312,0.107347 0.04156,0.554285 0.01307,0.692285 -0.03842,0.186155 -0.158684,0.389839 -0.320732,0.543223 -0.519607,0.491826 -1.532628,0.798668 -2.598862,0.787189 -0.127187,-0.0014 -0.259375,-0.0044 -0.29375,-0.0068 z m -0.05625,-1.661787 c -0.421251,-0.04118 -0.723486,-0.09203 -0.992353,-0.166942 -0.752144,-0.209572 -1.276583,-0.564525 -1.457858,-0.986716 -0.06468,-0.150642 -0.07837,-0.252646 -0.07232,-0.538769 0.0045,-0.212269 0.0084,-0.246766 0.0385,-0.341472 0.194567,-0.611849 1.12841,-1.10204 2.321529,-1.218612 0.283334,-0.02768 0.804166,-0.02768 1.0875,0 1.057586,0.103334 1.923587,0.501798 2.236464,1.029052 0.100692,0.169684 0.116176,0.238003 0.122714,0.541466 0.0077,0.358579 -0.01647,0.466496 -0.153451,0.684305 -0.213873,0.34008 -0.742149,0.659445 -1.374255,0.830792 -0.43927,0.119074 -0.77752,0.162629 -1.306472,0.168227 -0.216563,0.0023 -0.419063,0.0017 -0.45,-0.0014 z"
       id="path26" /></g></svg>
