<?xml version="1.0" encoding="UTF-8" standalone="no"?>
<!-- Created with Inkscape (http://www.inkscape.org/) -->

<svg
   width="210mm"
   height="297mm"
   viewBox="0 0 210 297"
   version="1.1"
   id="svg1"
   xml:space="preserve"
   inkscape:version="1.3.2 (091e20ef0f, 2023-11-25, custom)"
   sodipodi:docname="slave_card.svg"
   xmlns:inkscape="http://www.inkscape.org/namespaces/inkscape"
   xmlns:sodipodi="http://sodipodi.sourceforge.net/DTD/sodipodi-0.dtd"
   xmlns="http://www.w3.org/2000/svg"
   xmlns:svg="http://www.w3.org/2000/svg"><sodipodi:namedview
     id="namedview1"
     pagecolor="#ffffff"
     bordercolor="#000000"
     borderopacity="0.25"
     inkscape:showpageshadow="2"
     inkscape:pageopacity="0.0"
     inkscape:pagecheckerboard="0"
     inkscape:deskcolor="#d1d1d1"
     inkscape:document-units="mm"
     showguides="false"
     inkscape:zoom="1.4631382"
     inkscape:cx="144.21057"
     inkscape:cy="244.33782"
     inkscape:window-width="1920"
     inkscape:window-height="1011"
     inkscape:window-x="0"
     inkscape:window-y="32"
     inkscape:window-maximized="1"
     inkscape:current-layer="layer1" /><defs
     id="defs1"><clipPath
       clipPathUnits="userSpaceOnUse"
       id="clipPath24"><rect
         style="fill:none;stroke:#000000;stroke-width:0.999999;stroke-linecap:butt;stroke-linejoin:bevel;paint-order:stroke markers fill;stop-color:#000000"
         id="rect24"
         width="44.999748"
         height="77.937294"
         x="251.53429"
         y="222.73541" /></clipPath><clipPath
       clipPathUnits="userSpaceOnUse"
       id="clipPath7"><rect
         style="fill:#000000;stroke:#000000;stroke-width:0;stroke-linejoin:bevel;paint-order:stroke markers fill;stop-color:#000000"
         id="rect5-4"
         width="20"
         height="200"
         x="530"
         y="595" /></clipPath><clipPath
       clipPathUnits="userSpaceOnUse"
       id="clipPath5"><path
         id="path5"
         style="stroke-width:0.1;stroke-linecap:square;paint-order:markers fill stroke;stop-color:#000000"
         d="m 438.25066,553.76374 859.87054,0 v 201.39554 l -859.87054,0 z"
         sodipodi:nodetypes="ccccc" /></clipPath></defs><g
     inkscape:label="Vrstva 1"
     inkscape:groupmode="layer"
     id="layer1"><rect
       style="fill:#e0dfdf;fill-opacity:1;stroke:#402308;stroke-width:4.29599;stroke-linecap:round;stroke-linejoin:round;stroke-dasharray:none;stroke-opacity:1"
       id="rect1"
       width="95.70401"
       height="115.70401"
       x="12.147995"
       y="12.147995" /><rect
       style="fill:#402308;fill-opacity:1;stroke:#402308;stroke-width:3.237;stroke-linecap:round;stroke-linejoin:round;stroke-dasharray:none;stroke-opacity:1"
       id="rect2"
       width="76.762817"
       height="8.7628155"
       x="21.618587"
       y="21.618587" /><rect
       style="fill:#402308;fill-opacity:1;stroke:#402308;stroke-width:2.01995;stroke-linecap:round;stroke-linejoin:round;stroke-dasharray:none;stroke-opacity:1"
       id="rect25"
       width="27.980047"
       height="9.9800472"
       x="21.009975"
       y="36.009975" /><rect
       style="fill:#402308;fill-opacity:1;stroke:#402308;stroke-width:2.01995;stroke-linecap:round;stroke-linejoin:round;stroke-dasharray:none;stroke-opacity:1"
       id="rect25-7"
       width="27.980047"
       height="9.9800472"
       x="21.009975"
       y="51.009975" /><rect
       style="fill:#402308;fill-opacity:1;stroke:#402308;stroke-width:2.01995;stroke-linecap:round;stroke-linejoin:round;stroke-dasharray:none;stroke-opacity:1"
       id="rect25-5"
       width="27.980047"
       height="9.9800472"
       x="21.009975"
       y="66.009972" /><rect
       style="fill:#402308;fill-opacity:1;stroke:#402308;stroke-width:2.01995;stroke-linecap:round;stroke-linejoin:round;stroke-dasharray:none;stroke-opacity:1"
       id="rect25-5-3"
       width="27.980047"
       height="9.9800472"
       x="21.009975"
       y="81.009972" /><rect
       style="fill:#402308;fill-opacity:1;stroke:#402308;stroke-width:4.72268;stroke-linecap:round;stroke-linejoin:round;stroke-dasharray:none;stroke-opacity:1"
       id="rect25-5-3-1"
       width="75.277328"
       height="20.277325"
       x="22.36134"
       y="97.361328" /><path
       style="fill:#e0dfdf;stroke:none;stroke-width:1.08724;fill-opacity:1"
       d="m 25.947608,66.003746 c -1.200086,0.143809 -2.399202,0.366604 -3.589674,0.559748 -0.275363,0.04467 -0.55132,0.08764 -0.82725,0.129767 -0.134231,0.02049 -0.285436,0.03249 -0.361431,0.143024 -0.101138,0.147097 -0.07736,0.384595 -0.100724,0.549955 -0.07112,0.503346 -0.08163,1.019487 -0.05545,1.525383 0.05573,1.077281 0.163137,2.174174 0.642424,3.188301 0.453968,0.960552 1.264194,1.825505 2.164898,2.515254 0.502043,0.384459 1.010576,0.759194 1.565866,1.089143 0.169118,0.100489 0.427676,0.315417 0.649982,0.29422 0.198771,-0.01895 0.434064,-0.204182 0.590893,-0.302352 0.43674,-0.273389 0.862412,-0.552128 1.27042,-0.856137 0.943471,-0.70299 1.815661,-1.540746 2.344239,-2.515071 0.556684,-1.026132 0.755821,-2.255686 0.757948,-3.375848 9.75e-4,-0.513265 0.002,-1.02549 -0.05658,-1.537887 -0.01944,-0.169981 0.0085,-0.44225 -0.109599,-0.587146 -0.08166,-0.100226 -0.220749,-0.110977 -0.350856,-0.130839 -0.271035,-0.04137 -0.541771,-0.08451 -0.812478,-0.127366 -0.870953,-0.137884 -1.741775,-0.279488 -2.614701,-0.408088 -0.231748,-0.03414 -0.46335,-0.07157 -0.694299,-0.109403 -0.131021,-0.02146 -0.280062,-0.06067 -0.413625,-0.04466 m 0.05909,0.907377 v 4.001005 h 2.614701 0.797705 l 0.398853,0.0125 c -0.111383,0.334682 -0.201413,0.669817 -0.373867,0.987748 -0.486729,0.897318 -1.332927,1.649024 -2.226061,2.268378 -0.370442,0.256885 -0.775818,0.570502 -1.211331,0.744882 v -4.001005 h -3.811259 c -0.191498,-0.83578 -0.291811,-1.686497 -0.222907,-2.538138 0.02357,-0.2913 0.02664,-0.58673 0.08996,-0.875219 z"
       id="path29" /><path
       style="fill:#e0dfdf;stroke:none;stroke-width:1.01922;fill-opacity:1"
       d="m 26.027721,37.880665 h -0.03576 c -0.07958,-0.295542 -0.303304,-0.587318 -0.481288,-0.820218 -1.059987,-1.387052 -3.040485,-1.437004 -4.044051,0.05858 -0.175756,0.261922 -0.302503,0.565411 -0.378141,0.878806 -0.411301,1.704153 0.692971,3.266403 1.630262,4.491673 0.219396,0.286805 0.446324,0.566178 0.679221,0.839749 0.301424,0.354063 0.601155,0.711821 0.913422,1.054566 0.383662,0.421109 0.782129,0.827265 1.179974,1.232076 0.151555,0.154209 0.320508,0.408633 0.554237,0.382187 0.177412,-0.02008 0.288404,-0.181128 0.411206,-0.302504 0.263084,-0.260022 0.509295,-0.538226 0.768781,-0.802257 1.137849,-1.157776 2.296591,-2.472155 3.114254,-3.92708 0.720975,-1.282882 1.021767,-2.900786 0.01146,-4.120623 -1.062313,-1.282635 -2.897113,-1.027056 -3.857293,0.234349 -0.172822,0.22704 -0.388912,0.513347 -0.466292,0.80069 z"
       id="path27" /><path
       style="fill:#e0dfdf;stroke:none;stroke-width:1.15715;fill-opacity:1"
       d="m 21.025884,51.026102 v 1.951905 c 0,0.224824 -0.07383,0.610024 0.02789,0.813294 0.08276,0.165384 0.276731,0.304368 0.406225,0.433758 l 0.868223,0.867513 2.550404,2.548321 c 0.385863,0.385548 0.903669,0.771441 1.212899,1.21994 0.08465,0.122768 -0.04517,0.215483 -0.12762,0.298207 -0.140552,0.141018 -0.48427,0.372946 -0.533261,0.569306 -0.02424,0.09714 0.09432,0.184486 0.153433,0.243988 l 0.596879,0.596416 h 0.02714 l 1.112407,-1.111502 c 0.08917,-0.0891 0.270861,-0.350921 0.406979,-0.350921 0.166139,0 0.430779,0.374702 0.542639,0.486471 l 0.949619,0.948842 c 0.170351,0.17021 0.350889,0.389726 0.596903,0.446517 0.524551,0.121089 1.329101,-0.714464 1.160582,-1.232702 -0.08405,-0.258497 -0.376928,-0.464035 -0.563679,-0.650635 -0.441346,-0.440985 -0.87374,-0.996537 -1.38373,-1.355488 v -0.02711 c 0.56963,-0.40093 1.053459,-1.025489 1.546522,-1.518149 -0.162905,-0.231074 -0.396336,-0.424569 -0.596903,-0.623504 -0.05956,-0.05906 -0.146969,-0.177525 -0.244188,-0.153307 -0.19652,0.04895 -0.428638,0.392387 -0.569771,0.532823 -0.101582,0.101071 -0.189012,0.217959 -0.325583,0.105259 -0.436771,-0.360421 -0.820239,-0.81639 -1.220939,-1.216762 L 25.204203,52.435815 24.227451,51.459863 C 24.097012,51.32953 23.942993,51.107591 23.766208,51.042464 23.535959,50.957646 23.169767,51.0261 22.925118,51.0261 h -1.899237 m 6.945781,5.801497 v 0.02711 l -0.569772,0.542196 h -0.02713 l -3.47289,-3.470054 c -0.553261,-0.552806 -1.259126,-1.096455 -1.709314,-1.735027 0.298286,0 0.844806,-0.105824 1.112411,0.02786 0.196198,0.09802 0.359814,0.335072 0.515507,0.486826 0.325043,0.31682 0.655235,0.627987 0.976749,0.949239 z"
       id="path28" /></g></svg>
