<?xml version="1.0" encoding="UTF-8" standalone="no"?>
<!-- Created with Inkscape (http://www.inkscape.org/) -->

<svg
   width="210mm"
   height="297mm"
   viewBox="0 0 210 297"
   version="1.1"
   id="svg1"
   xml:space="preserve"
   inkscape:version="1.3.2 (091e20ef0f, 2023-11-25, custom)"
   sodipodi:docname="tick.svg"
   xmlns:inkscape="http://www.inkscape.org/namespaces/inkscape"
   xmlns:sodipodi="http://sodipodi.sourceforge.net/DTD/sodipodi-0.dtd"
   xmlns="http://www.w3.org/2000/svg"
   xmlns:svg="http://www.w3.org/2000/svg"><sodipodi:namedview
     id="namedview1"
     pagecolor="#ffffff"
     bordercolor="#000000"
     borderopacity="0.25"
     inkscape:showpageshadow="2"
     inkscape:pageopacity="0.0"
     inkscape:pagecheckerboard="0"
     inkscape:deskcolor="#d1d1d1"
     inkscape:document-units="mm"
     inkscape:zoom="0.733172"
     inkscape:cx="411.9088"
     inkscape:cy="630.8206"
     inkscape:window-width="1920"
     inkscape:window-height="1011"
     inkscape:window-x="0"
     inkscape:window-y="32"
     inkscape:window-maximized="1"
     inkscape:current-layer="layer1" /><defs
     id="defs1" /><g
     inkscape:label="Vrstva 1"
     inkscape:groupmode="layer"
     id="layer1"><path
       style="fill:#e5e4e2;stroke:none;fill-opacity:1"
       d="m 175.94624,25.629161 c -11.01687,0.956733 -21.19781,9.798196 -29.33599,16.590284 -19.31782,16.12255 -36.91049,34.59212 -53.699482,53.29689 -4.99389,5.563735 -9.997966,11.114785 -14.864033,16.791635 -1.494227,1.7432 -3.894425,5.99956 -6.016706,6.84338 -0.78996,0.31409 -2.369524,-0.92208 -3.056441,-1.28192 -2.738325,-1.43446 -5.532089,-2.77144 -8.297048,-4.15392 -9.057268,-4.52864 -19.350197,-9.66033 -29.533539,-10.80164 -4.891829,-0.54825 -10.194122,-0.17791 -13.047066,4.45538 -4.56767,7.41808 5.155219,13.1471 9.688737,17.68062 14.091768,14.09177 25.393299,30.5646 35.598171,47.60924 2.720051,4.54315 5.343966,9.14349 7.99043,13.72964 1.264745,2.19173 2.710816,4.46143 5.601039,4.18165 4.522347,-0.43779 5.745753,-7.3279 7.197671,-10.79953 4.790035,-11.4533 9.987825,-22.75482 15.696725,-33.78084 14.009582,-27.05773 31.027732,-52.281475 51.156412,-75.167285 6.5871,-7.48937 13.74996,-14.45779 20.87137,-21.430836 3.82563,-3.745926 8.10315,-7.284368 11.36084,-11.559808 4.64642,-6.09804 0.075,-12.84437 -7.31109,-12.20294 z"
       id="path1"
       inkscape:export-filename="tick.png"
       inkscape:export-xdpi="96"
       inkscape:export-ydpi="96" /></g></svg>
