<?xml version="1.0" encoding="UTF-8" standalone="no"?>
<!-- Created with Inkscape (http://www.inkscape.org/) -->

<svg
   width="210mm"
   height="297mm"
   viewBox="0 0 210 297"
   version="1.1"
   id="svg1"
   xml:space="preserve"
   inkscape:version="1.3.2 (091e20ef0f, 2023-11-25, custom)"
   sodipodi:docname="time.svg"
   xmlns:inkscape="http://www.inkscape.org/namespaces/inkscape"
   xmlns:sodipodi="http://sodipodi.sourceforge.net/DTD/sodipodi-0.dtd"
   xmlns="http://www.w3.org/2000/svg"
   xmlns:svg="http://www.w3.org/2000/svg"><sodipodi:namedview
     id="namedview1"
     pagecolor="#ffffff"
     bordercolor="#000000"
     borderopacity="0.25"
     inkscape:showpageshadow="2"
     inkscape:pageopacity="0.0"
     inkscape:pagecheckerboard="0"
     inkscape:deskcolor="#d1d1d1"
     inkscape:document-units="mm"
     inkscape:zoom="0.733172"
     inkscape:cx="396.9055"
     inkscape:cy="561.25984"
     inkscape:window-width="1920"
     inkscape:window-height="1011"
     inkscape:window-x="0"
     inkscape:window-y="32"
     inkscape:window-maximized="1"
     inkscape:current-layer="layer1" /><defs
     id="defs1" /><g
     inkscape:label="Vrstva 1"
     inkscape:groupmode="layer"
     id="layer1"><path
       style="fill:#dfdfdf;stroke:none;stroke-width:1.0002;fill-opacity:1"
       d="M 47.279016,0.19602286 C 44.251389,0.59435075 41.279886,0.79413745 38.28614,1.5050804 30.127771,3.4425099 22.516034,7.5497245 16.303556,13.17977 11.768237,17.289894 8.0131682,22.326707 5.2814234,27.801094 2.5123172,33.350352 0.7995531,39.395705 0.2125222,45.572416 -1.6895319,65.585747 9.3242116,85.631897 27.294848,94.635139 36.329069,99.161249 46.51949,100.84861 56.521694,99.601647 80.40861,96.623675 99.395768,75.699751 99.985428,51.579623 100.56892,27.711968 83.567827,5.9381951 60.143825,1.1690302 56.063977,0.33836764 51.445186,-0.35209775 47.279016,0.19602286 M 46.654511,48.325719 V 18.164533 c 0,-2.808129 -1.172644,-8.5728156 2.248218,-9.7481908 1.76911,-0.6078462 3.695334,0.351733 4.277862,2.1140328 0.65946,1.995008 0.21858,4.670683 0.21858,6.758107 v 24.028829 7.383858 c 0,1.24985 0.18366,2.66665 -0.16249,3.879655 -0.83461,2.924629 -4.110229,2.377853 -6.457265,2.377853 H 27.54465 c -2.320928,0 -6.006401,0.745715 -7.200217,-1.877252 -0.89677,-1.970324 0.31802,-4.558149 2.578878,-4.744022 2.627666,-0.216029 5.356515,-0.01171 7.993667,-0.01171 z"
       id="path1"
       inkscape:export-filename="time.png"
       inkscape:export-xdpi="250"
       inkscape:export-ydpi="250" /></g></svg>
